<svg width="335" height="202" viewBox="0 0 335 202" fill="none" xmlns="http://www.w3.org/2000/svg">
<g filter="url(#filter0_d_2_1020)">
<g filter="url(#filter1_d_2_1020)">
<path d="M32 27C32 23.6863 34.6863 21 38 21H289C292.314 21 295 23.6863 295 27V145C295 148.314 292.314 151 289 151H38C34.6863 151 32 148.314 32 145V27Z" fill="white"/>
<path d="M32 27C32 23.6863 34.6863 21 38 21H289C292.314 21 295 23.6863 295 27V145C295 148.314 292.314 151 289 151H38C34.6863 151 32 148.314 32 145V27Z" stroke="#E9EFF4"/>
</g>
<rect x="49" y="115" width="24" height="24" rx="2" fill="white" stroke="#4DA1FF" stroke-opacity="0.7"/>
<path fill-rule="evenodd" clip-rule="evenodd" d="M56.6948 126.601L64.0767 129.744L64.9136 122.732L56.6948 126.601ZM64.251 130.232C64.222 130.232 64.1931 130.226 64.1662 130.214L56.1229 126.79C56.0496 126.759 56.0017 126.69 56 126.613C55.9986 126.537 56.0436 126.466 56.1156 126.432L65.0709 122.218C65.1388 122.186 65.2199 122.192 65.2822 122.233C65.3444 122.275 65.3776 122.345 65.3691 122.417L64.4571 130.056C64.4496 130.119 64.4112 130.175 64.3538 130.206C64.322 130.223 64.2865 130.232 64.251 130.232Z" fill="#4DA1FF"/>
<path d="M56.6948 126.601L56.6309 126.465L56.328 126.608L56.636 126.739L56.6948 126.601ZM64.0767 129.744L64.018 129.882L64.202 129.96L64.2257 129.761L64.0767 129.744ZM64.9136 122.732L65.0626 122.75L65.0946 122.481L64.8497 122.597L64.9136 122.732ZM64.1662 130.214L64.1074 130.352L64.1084 130.353L64.1662 130.214ZM56.1229 126.79L56.0641 126.928L56.0641 126.928L56.1229 126.79ZM56 126.613L55.8501 126.616L55.8501 126.617L56 126.613ZM56.1156 126.432L56.0517 126.297L56.0516 126.297L56.1156 126.432ZM65.0709 122.218L65.1348 122.354L65.1349 122.354L65.0709 122.218ZM65.2822 122.233L65.1987 122.358L65.199 122.358L65.2822 122.233ZM65.3691 122.417L65.518 122.435L65.5181 122.435L65.3691 122.417ZM64.4571 130.056L64.606 130.074L64.606 130.074L64.4571 130.056ZM64.3538 130.206L64.2825 130.074L64.2817 130.074L64.3538 130.206ZM56.636 126.739L64.018 129.882L64.1355 129.606L56.7535 126.463L56.636 126.739ZM64.2257 129.761L65.0626 122.75L64.7647 122.715L63.9278 129.726L64.2257 129.761ZM64.8497 122.597L56.6309 126.465L56.7587 126.736L64.9775 122.868L64.8497 122.597ZM64.251 130.082C64.2424 130.082 64.2331 130.08 64.2239 130.076L64.1084 130.353C64.1532 130.372 64.2016 130.382 64.251 130.382V130.082ZM64.2249 130.076L56.1816 126.652L56.0641 126.928L64.1074 130.352L64.2249 130.076ZM56.1817 126.652C56.1598 126.643 56.1503 126.625 56.15 126.61L55.8501 126.617C55.8531 126.755 55.9395 126.875 56.0641 126.928L56.1817 126.652ZM56.15 126.611C56.1497 126.596 56.1582 126.578 56.1796 126.568L56.0516 126.297C55.929 126.355 55.8474 126.478 55.8501 126.616L56.15 126.611ZM56.1795 126.568L65.1348 122.354L65.007 122.082L56.0517 126.297L56.1795 126.568ZM65.1349 122.354C65.1556 122.344 65.1807 122.346 65.1987 122.358L65.3656 122.109C65.2591 122.037 65.1219 122.028 65.0069 122.082L65.1349 122.354ZM65.199 122.358C65.2159 122.37 65.2218 122.386 65.2201 122.4L65.5181 122.435C65.5334 122.305 65.4729 122.18 65.3653 122.109L65.199 122.358ZM65.2202 122.399L64.3082 130.039L64.606 130.074L65.518 122.435L65.2202 122.399ZM64.3082 130.039C64.3067 130.051 64.2986 130.065 64.2825 130.074L64.425 130.338C64.5238 130.284 64.5926 130.187 64.606 130.074L64.3082 130.039ZM64.2817 130.074C64.2728 130.079 64.2622 130.082 64.251 130.082V130.382C64.3109 130.382 64.3712 130.367 64.4258 130.337L64.2817 130.074Z" fill="#4DA1FF"/>
<path fill-rule="evenodd" clip-rule="evenodd" d="M59.9014 131.465C59.8825 131.465 59.8634 131.463 59.8445 131.458C59.7547 131.433 59.6932 131.355 59.6939 131.266L59.7198 128.106C59.7202 128.059 59.7385 128.014 59.771 127.978L65.0032 122.266C65.0787 122.184 65.2099 122.175 65.2962 122.247C65.3825 122.319 65.3915 122.443 65.3161 122.525L60.1344 128.183L60.1147 130.556L61.2581 128.772C61.318 128.679 61.4457 128.65 61.5434 128.707C61.6411 128.763 61.672 128.885 61.6123 128.978L60.0786 131.371C60.0402 131.43 59.9723 131.465 59.9014 131.465Z" fill="#4DA1FF"/>
<path d="M59.9014 131.465C59.8825 131.465 59.8634 131.463 59.8445 131.458C59.7547 131.433 59.6932 131.355 59.6939 131.266L59.7198 128.106C59.7202 128.059 59.7385 128.014 59.771 127.978L65.0032 122.266C65.0787 122.184 65.2099 122.175 65.2962 122.247C65.3825 122.319 65.3915 122.443 65.3161 122.525L60.1344 128.183L60.1147 130.556L61.2581 128.772C61.318 128.679 61.4457 128.65 61.5434 128.707C61.6411 128.763 61.672 128.885 61.6123 128.978L60.0786 131.371C60.0402 131.43 59.9723 131.465 59.9014 131.465" stroke="#4DA1FF" stroke-width="0.3"/>
<rect x="110" y="115" width="25" height="25" rx="2" fill="#FFD012" fill-opacity="0.1"/>
<path d="M121.838 129.125V130H118.441V129.125H121.838ZM118.753 123.602V130H117.65V123.602H118.753ZM121.395 126.273V127.135H118.441V126.273H121.395ZM121.816 123.602V124.48H118.441V123.602H121.816ZM125.871 128.352C125.871 128.22 125.85 128.103 125.809 128C125.771 127.898 125.702 127.804 125.603 127.719C125.503 127.634 125.362 127.552 125.181 127.473C125.002 127.391 124.774 127.308 124.495 127.223C124.191 127.129 123.909 127.025 123.652 126.911C123.397 126.793 123.174 126.659 122.984 126.506C122.793 126.351 122.645 126.174 122.54 125.975C122.434 125.772 122.382 125.54 122.382 125.276C122.382 125.015 122.436 124.778 122.544 124.564C122.655 124.35 122.812 124.166 123.014 124.01C123.219 123.852 123.461 123.73 123.739 123.646C124.018 123.558 124.325 123.514 124.662 123.514C125.137 123.514 125.546 123.602 125.888 123.777C126.234 123.953 126.499 124.189 126.684 124.485C126.871 124.781 126.965 125.107 126.965 125.465H125.871C125.871 125.254 125.825 125.068 125.735 124.907C125.647 124.743 125.512 124.614 125.33 124.52C125.152 124.426 124.924 124.379 124.649 124.379C124.388 124.379 124.172 124.419 123.999 124.498C123.826 124.577 123.697 124.684 123.612 124.819C123.527 124.954 123.485 125.106 123.485 125.276C123.485 125.396 123.512 125.506 123.568 125.605C123.624 125.702 123.709 125.793 123.823 125.878C123.937 125.96 124.081 126.038 124.254 126.111C124.426 126.184 124.63 126.254 124.864 126.322C125.219 126.427 125.528 126.544 125.792 126.673C126.055 126.799 126.275 126.943 126.451 127.104C126.627 127.265 126.758 127.448 126.846 127.653C126.934 127.855 126.978 128.085 126.978 128.343C126.978 128.613 126.924 128.856 126.816 129.073C126.707 129.287 126.552 129.47 126.35 129.622C126.151 129.771 125.91 129.887 125.629 129.969C125.351 130.048 125.04 130.088 124.697 130.088C124.39 130.088 124.087 130.047 123.788 129.965C123.492 129.883 123.222 129.758 122.979 129.591C122.736 129.421 122.543 129.21 122.399 128.958C122.256 128.704 122.184 128.406 122.184 128.066H123.287C123.287 128.274 123.322 128.452 123.392 128.598C123.466 128.745 123.567 128.865 123.695 128.958C123.824 129.049 123.974 129.117 124.144 129.161C124.317 129.205 124.501 129.227 124.697 129.227C124.955 129.227 125.171 129.19 125.343 129.117C125.519 129.043 125.651 128.941 125.739 128.809C125.827 128.677 125.871 128.525 125.871 128.352Z" fill="#FFD012"/>
<rect x="80" y="115" width="25" height="25" rx="2" fill="#4DA1FF" fill-opacity="0.1"/>
<path d="M88.1421 124.454L86.2305 130H85.0747L87.4829 123.602H88.2212L88.1421 124.454ZM89.7417 130L87.8257 124.454L87.7422 123.602H88.4849L90.9019 130H89.7417ZM89.6494 127.627V128.501H86.1689V127.627H89.6494ZM91.8317 123.602H92.8161L94.6662 128.537L96.5119 123.602H97.4963L95.0529 130H94.2707L91.8317 123.602ZM91.3835 123.602H92.3195L92.4821 127.873V130H91.3835V123.602ZM97.0085 123.602H97.9489V130H96.8459V127.873L97.0085 123.602Z" fill="#4DA1FF"/>
<path d="M52.7734 78.9922L54.749 72.0469H55.7061L55.1523 74.7471L53.0264 82H52.0762L52.7734 78.9922ZM50.7295 72.0469L52.3018 78.8555L52.7734 82H51.8301L49.417 72.0469H50.7295ZM58.2627 78.8486L59.8008 72.0469H61.1201L58.7139 82H57.7705L58.2627 78.8486ZM55.8496 72.0469L57.7705 78.9922L58.4678 82H57.5176L55.4668 74.7471L54.9062 72.0469H55.8496ZM64.9553 82.1367C64.4404 82.1367 63.9732 82.0501 63.554 81.877C63.1393 81.6992 62.7815 81.4508 62.4807 81.1318C62.1845 80.8128 61.9566 80.4346 61.7971 79.9971C61.6376 79.5596 61.5579 79.0811 61.5579 78.5615V78.2744C61.5579 77.6729 61.6468 77.1374 61.8245 76.668C62.0022 76.194 62.2438 75.793 62.5491 75.4648C62.8544 75.1367 63.2008 74.8883 63.5882 74.7197C63.9755 74.5511 64.3766 74.4668 64.7913 74.4668C65.3199 74.4668 65.7757 74.5579 66.1585 74.7402C66.5458 74.9225 66.8626 75.1777 67.1087 75.5059C67.3548 75.8294 67.5371 76.2122 67.6555 76.6543C67.774 77.0918 67.8333 77.5703 67.8333 78.0898V78.6572H62.3098V77.625H66.5686V77.5293C66.5504 77.2012 66.482 76.8822 66.3635 76.5723C66.2496 76.2624 66.0673 76.0072 65.8167 75.8066C65.566 75.6061 65.2242 75.5059 64.7913 75.5059C64.5042 75.5059 64.2399 75.5674 63.9983 75.6904C63.7568 75.8089 63.5494 75.9867 63.3762 76.2236C63.2031 76.4606 63.0686 76.75 62.9729 77.0918C62.8772 77.4336 62.8294 77.8278 62.8294 78.2744V78.5615C62.8294 78.9124 62.8772 79.2428 62.9729 79.5527C63.0732 79.8581 63.2167 80.127 63.4036 80.3594C63.595 80.5918 63.8251 80.7741 64.094 80.9062C64.3675 81.0384 64.6774 81.1045 65.0237 81.1045C65.4703 81.1045 65.8486 81.0133 66.1585 80.8311C66.4684 80.6488 66.7395 80.4049 66.9719 80.0996L67.7376 80.708C67.5781 80.9495 67.3753 81.1797 67.1292 81.3984C66.8831 81.6172 66.58 81.7949 66.22 81.9316C65.8645 82.0684 65.443 82.1367 64.9553 82.1367ZM69.0162 71.5H70.2876V80.5645L70.1783 82H69.0162V71.5ZM75.2847 78.2402V78.3838C75.2847 78.9215 75.2209 79.4206 75.0933 79.8809C74.9657 80.3366 74.7789 80.7331 74.5328 81.0703C74.2867 81.4076 73.9859 81.6696 73.6304 81.8564C73.2749 82.0433 72.8671 82.1367 72.4068 82.1367C71.9374 82.1367 71.5249 82.057 71.1695 81.8975C70.8186 81.7334 70.5223 81.4987 70.2808 81.1934C70.0393 80.888 69.8456 80.5189 69.6998 80.0859C69.5585 79.653 69.4605 79.1654 69.4058 78.623V77.9941C69.4605 77.4473 69.5585 76.9574 69.6998 76.5244C69.8456 76.0915 70.0393 75.7223 70.2808 75.417C70.5223 75.1071 70.8186 74.8724 71.1695 74.7129C71.5204 74.5488 71.9283 74.4668 72.3931 74.4668C72.858 74.4668 73.2704 74.5579 73.6304 74.7402C73.9904 74.918 74.2912 75.1732 74.5328 75.5059C74.7789 75.8385 74.9657 76.2373 75.0933 76.7021C75.2209 77.1624 75.2847 77.6751 75.2847 78.2402ZM74.0132 78.3838V78.2402C74.0132 77.8711 73.979 77.5247 73.9107 77.2012C73.8423 76.873 73.733 76.5859 73.5826 76.3398C73.4322 76.0892 73.2339 75.8932 72.9878 75.752C72.7417 75.6061 72.4387 75.5332 72.0787 75.5332C71.7596 75.5332 71.4817 75.5879 71.2447 75.6973C71.0123 75.8066 70.814 75.9548 70.6499 76.1416C70.4859 76.3239 70.3514 76.5335 70.2466 76.7705C70.1464 77.0029 70.0712 77.2445 70.021 77.4951V79.1426C70.094 79.4616 70.2124 79.7692 70.3765 80.0654C70.5451 80.3571 70.7684 80.5964 71.0464 80.7832C71.329 80.9701 71.6776 81.0635 72.0923 81.0635C72.4341 81.0635 72.7258 80.9951 72.9673 80.8584C73.2134 80.7171 73.4117 80.5234 73.5621 80.2773C73.717 80.0312 73.8309 79.7464 73.9039 79.4229C73.9768 79.0993 74.0132 78.7529 74.0132 78.3838ZM80.9041 80.0381C80.9041 79.8558 80.8631 79.6872 80.7811 79.5322C80.7036 79.3727 80.5418 79.2292 80.2957 79.1016C80.0542 78.9694 79.6896 78.8555 79.202 78.7598C78.7918 78.6732 78.4204 78.5706 78.0877 78.4521C77.7596 78.3337 77.4793 78.1901 77.2469 78.0215C77.019 77.8529 76.8436 77.6546 76.7205 77.4268C76.5975 77.1989 76.536 76.9323 76.536 76.627C76.536 76.3353 76.5998 76.0596 76.7274 75.7998C76.8595 75.54 77.0441 75.3099 77.2811 75.1094C77.5226 74.9089 77.812 74.7516 78.1492 74.6377C78.4865 74.5238 78.8625 74.4668 79.2772 74.4668C79.8696 74.4668 80.3755 74.5716 80.7947 74.7812C81.214 74.9909 81.5353 75.2712 81.7586 75.6221C81.9819 75.9684 82.0936 76.3535 82.0936 76.7773H80.8289C80.8289 76.5723 80.7674 76.374 80.6444 76.1826C80.5259 75.9867 80.3504 75.8249 80.118 75.6973C79.8901 75.5697 79.6099 75.5059 79.2772 75.5059C78.9263 75.5059 78.6414 75.5605 78.4227 75.6699C78.2085 75.7747 78.0513 75.9092 77.951 76.0732C77.8553 76.2373 77.8074 76.4105 77.8074 76.5928C77.8074 76.7295 77.8302 76.8525 77.8758 76.9619C77.9259 77.0667 78.0125 77.1647 78.1356 77.2559C78.2586 77.3424 78.4318 77.4245 78.6551 77.502C78.8784 77.5794 79.1632 77.6569 79.5096 77.7344C80.1157 77.8711 80.6147 78.0352 81.0067 78.2266C81.3986 78.418 81.6903 78.6527 81.8817 78.9307C82.0731 79.2087 82.1688 79.5459 82.1688 79.9424C82.1688 80.266 82.1004 80.5622 81.9637 80.8311C81.8315 81.0999 81.6378 81.3324 81.3826 81.5283C81.132 81.7197 80.8312 81.8701 80.4803 81.9795C80.1339 82.0843 79.7443 82.1367 79.3113 82.1367C78.6597 82.1367 78.1082 82.0205 77.6571 81.7881C77.2059 81.5557 76.8641 81.2549 76.6317 80.8857C76.3992 80.5166 76.283 80.127 76.283 79.7168H77.5545C77.5727 80.0632 77.673 80.3389 77.8553 80.5439C78.0376 80.7445 78.2609 80.888 78.5252 80.9746C78.7895 81.0566 79.0516 81.0977 79.3113 81.0977C79.6577 81.0977 79.9471 81.0521 80.1795 80.9609C80.4165 80.8698 80.5965 80.7445 80.7196 80.585C80.8426 80.4255 80.9041 80.2432 80.9041 80.0381ZM84.9171 74.6035V82H83.6456V74.6035H84.9171ZM83.5499 72.6416C83.5499 72.4365 83.6114 72.2633 83.7345 72.1221C83.8621 71.9808 84.0489 71.9102 84.295 71.9102C84.5365 71.9102 84.7211 71.9808 84.8487 72.1221C84.9809 72.2633 85.047 72.4365 85.047 72.6416C85.047 72.8376 84.9809 73.0062 84.8487 73.1475C84.7211 73.2842 84.5365 73.3525 84.295 73.3525C84.0489 73.3525 83.8621 73.2842 83.7345 73.1475C83.6114 73.0062 83.5499 72.8376 83.5499 72.6416ZM89.7572 74.6035V75.5742H85.7582V74.6035H89.7572ZM87.1117 72.8057H88.3763V80.168C88.3763 80.4186 88.4151 80.6077 88.4925 80.7354C88.57 80.863 88.6703 80.9473 88.7933 80.9883C88.9164 81.0293 89.0485 81.0498 89.1898 81.0498C89.2946 81.0498 89.404 81.0407 89.5179 81.0225C89.6364 80.9997 89.7253 80.9814 89.7845 80.9678L89.7914 82C89.6911 82.0319 89.559 82.0615 89.3949 82.0889C89.2354 82.1208 89.0417 82.1367 88.8138 82.1367C88.5039 82.1367 88.2191 82.0752 87.9593 81.9521C87.6996 81.8291 87.4922 81.624 87.3373 81.3369C87.1869 81.0452 87.1117 80.6533 87.1117 80.1611V72.8057ZM94.0231 82.1367C93.5081 82.1367 93.041 82.0501 92.6217 81.877C92.207 81.6992 91.8493 81.4508 91.5485 81.1318C91.2523 80.8128 91.0244 80.4346 90.8649 79.9971C90.7054 79.5596 90.6256 79.0811 90.6256 78.5615V78.2744C90.6256 77.6729 90.7145 77.1374 90.8922 76.668C91.07 76.194 91.3115 75.793 91.6168 75.4648C91.9222 75.1367 92.2685 74.8883 92.6559 74.7197C93.0433 74.5511 93.4443 74.4668 93.859 74.4668C94.3877 74.4668 94.8434 74.5579 95.2262 74.7402C95.6136 74.9225 95.9303 75.1777 96.1764 75.5059C96.4225 75.8294 96.6048 76.2122 96.7233 76.6543C96.8418 77.0918 96.901 77.5703 96.901 78.0898V78.6572H91.3776V77.625H95.6364V77.5293C95.6181 77.2012 95.5498 76.8822 95.4313 76.5723C95.3174 76.2624 95.1351 76.0072 94.8844 75.8066C94.6338 75.6061 94.292 75.5059 93.859 75.5059C93.5719 75.5059 93.3076 75.5674 93.0661 75.6904C92.8245 75.8089 92.6172 75.9867 92.444 76.2236C92.2708 76.4606 92.1364 76.75 92.0407 77.0918C91.945 77.4336 91.8971 77.8278 91.8971 78.2744V78.5615C91.8971 78.9124 91.945 79.2428 92.0407 79.5527C92.1409 79.8581 92.2845 80.127 92.4713 80.3594C92.6627 80.5918 92.8929 80.7741 93.1618 80.9062C93.4352 81.0384 93.7451 81.1045 94.0914 81.1045C94.5381 81.1045 94.9163 81.0133 95.2262 80.8311C95.5361 80.6488 95.8073 80.4049 96.0397 80.0996L96.8053 80.708C96.6458 80.9495 96.443 81.1797 96.1969 81.3984C95.9508 81.6172 95.6478 81.7949 95.2877 81.9316C94.9323 82.0684 94.5107 82.1367 94.0231 82.1367ZM103.163 82H101.899V73.8242C101.899 73.291 101.994 72.8421 102.186 72.4775C102.382 72.1084 102.662 71.8304 103.027 71.6436C103.391 71.4521 103.824 71.3564 104.325 71.3564C104.471 71.3564 104.617 71.3656 104.763 71.3838C104.913 71.402 105.059 71.4294 105.2 71.4658L105.132 72.498C105.036 72.4753 104.927 72.4593 104.804 72.4502C104.685 72.4411 104.567 72.4365 104.448 72.4365C104.18 72.4365 103.947 72.4912 103.751 72.6006C103.56 72.7054 103.414 72.8604 103.314 73.0654C103.213 73.2705 103.163 73.5234 103.163 73.8242V82ZM104.736 74.6035V75.5742H100.73V74.6035H104.736ZM105.522 78.3838V78.2266C105.522 77.6934 105.599 77.1989 105.754 76.7432C105.909 76.2829 106.133 75.8841 106.424 75.5469C106.716 75.2051 107.069 74.9408 107.484 74.7539C107.899 74.5625 108.363 74.4668 108.878 74.4668C109.398 74.4668 109.865 74.5625 110.28 74.7539C110.699 74.9408 111.054 75.2051 111.346 75.5469C111.642 75.8841 111.868 76.2829 112.023 76.7432C112.178 77.1989 112.255 77.6934 112.255 78.2266V78.3838C112.255 78.917 112.178 79.4115 112.023 79.8672C111.868 80.3229 111.642 80.7217 111.346 81.0635C111.054 81.4007 110.701 81.665 110.287 81.8564C109.876 82.0433 109.412 82.1367 108.892 82.1367C108.373 82.1367 107.905 82.0433 107.491 81.8564C107.076 81.665 106.721 81.4007 106.424 81.0635C106.133 80.7217 105.909 80.3229 105.754 79.8672C105.599 79.4115 105.522 78.917 105.522 78.3838ZM106.787 78.2266V78.3838C106.787 78.7529 106.83 79.1016 106.916 79.4297C107.003 79.7533 107.133 80.0404 107.306 80.291C107.484 80.5417 107.705 80.7399 107.969 80.8857C108.234 81.027 108.541 81.0977 108.892 81.0977C109.238 81.0977 109.541 81.027 109.801 80.8857C110.066 80.7399 110.284 80.5417 110.457 80.291C110.631 80.0404 110.761 79.7533 110.847 79.4297C110.938 79.1016 110.984 78.7529 110.984 78.3838V78.2266C110.984 77.862 110.938 77.5179 110.847 77.1943C110.761 76.8662 110.628 76.5768 110.451 76.3262C110.277 76.071 110.059 75.8704 109.794 75.7246C109.535 75.5788 109.229 75.5059 108.878 75.5059C108.532 75.5059 108.227 75.5788 107.962 75.7246C107.703 75.8704 107.484 76.071 107.306 76.3262C107.133 76.5768 107.003 76.8662 106.916 77.1943C106.83 77.5179 106.787 77.862 106.787 78.2266ZM114.819 75.7656V82H113.554V74.6035H114.785L114.819 75.7656ZM117.13 74.5625L117.123 75.7383C117.018 75.7155 116.918 75.7018 116.822 75.6973C116.731 75.6882 116.626 75.6836 116.508 75.6836C116.216 75.6836 115.958 75.7292 115.735 75.8203C115.512 75.9115 115.323 76.0391 115.168 76.2031C115.013 76.3672 114.89 76.5632 114.799 76.791C114.712 77.0143 114.655 77.2604 114.628 77.5293L114.272 77.7344C114.272 77.2878 114.315 76.8685 114.402 76.4766C114.493 76.0846 114.632 75.7383 114.819 75.4375C115.006 75.1322 115.243 74.8952 115.53 74.7266C115.822 74.5534 116.168 74.4668 116.569 74.4668C116.66 74.4668 116.765 74.4782 116.884 74.501C117.002 74.5192 117.084 74.5397 117.13 74.5625ZM124.294 74.6035V75.5742H120.295V74.6035H124.294ZM121.649 72.8057H122.913V80.168C122.913 80.4186 122.952 80.6077 123.03 80.7354C123.107 80.863 123.207 80.9473 123.33 80.9883C123.453 81.0293 123.586 81.0498 123.727 81.0498C123.832 81.0498 123.941 81.0407 124.055 81.0225C124.173 80.9997 124.262 80.9814 124.322 80.9678L124.328 82C124.228 82.0319 124.096 82.0615 123.932 82.0889C123.772 82.1208 123.579 82.1367 123.351 82.1367C123.041 82.1367 122.756 82.0752 122.496 81.9521C122.237 81.8291 122.029 81.624 121.874 81.3369C121.724 81.0452 121.649 80.6533 121.649 80.1611V72.8057ZM126.755 71.5V82H125.491V71.5H126.755ZM126.455 78.0215L125.928 78.001C125.933 77.4951 126.008 77.028 126.154 76.5996C126.3 76.1667 126.505 75.7907 126.769 75.4717C127.033 75.1527 127.348 74.9066 127.712 74.7334C128.082 74.5557 128.489 74.4668 128.936 74.4668C129.301 74.4668 129.629 74.5169 129.92 74.6172C130.212 74.7129 130.461 74.8678 130.666 75.082C130.875 75.2962 131.035 75.5742 131.144 75.916C131.253 76.2533 131.308 76.6657 131.308 77.1533V82H130.037V77.1396C130.037 76.7523 129.98 76.4424 129.866 76.21C129.752 75.973 129.586 75.8021 129.367 75.6973C129.148 75.5879 128.879 75.5332 128.56 75.5332C128.246 75.5332 127.959 75.5993 127.699 75.7314C127.444 75.8636 127.223 76.0459 127.036 76.2783C126.853 76.5107 126.71 76.7773 126.605 77.0781C126.505 77.3743 126.455 77.6888 126.455 78.0215ZM135.984 82.1367C135.469 82.1367 135.002 82.0501 134.583 81.877C134.168 81.6992 133.81 81.4508 133.51 81.1318C133.213 80.8128 132.986 80.4346 132.826 79.9971C132.666 79.5596 132.587 79.0811 132.587 78.5615V78.2744C132.587 77.6729 132.676 77.1374 132.853 76.668C133.031 76.194 133.273 75.793 133.578 75.4648C133.883 75.1367 134.23 74.8883 134.617 74.7197C135.004 74.5511 135.405 74.4668 135.82 74.4668C136.349 74.4668 136.805 74.5579 137.187 74.7402C137.575 74.9225 137.891 75.1777 138.138 75.5059C138.384 75.8294 138.566 76.2122 138.684 76.6543C138.803 77.0918 138.862 77.5703 138.862 78.0898V78.6572H133.339V77.625H137.597V77.5293C137.579 77.2012 137.511 76.8822 137.392 76.5723C137.278 76.2624 137.096 76.0072 136.846 75.8066C136.595 75.6061 136.253 75.5059 135.82 75.5059C135.533 75.5059 135.269 75.5674 135.027 75.6904C134.786 75.8089 134.578 75.9867 134.405 76.2236C134.232 76.4606 134.097 76.75 134.002 77.0918C133.906 77.4336 133.858 77.8278 133.858 78.2744V78.5615C133.858 78.9124 133.906 79.2428 134.002 79.5527C134.102 79.8581 134.246 80.127 134.432 80.3594C134.624 80.5918 134.854 80.7741 135.123 80.9062C135.396 81.0384 135.706 81.1045 136.053 81.1045C136.499 81.1045 136.877 81.0133 137.187 80.8311C137.497 80.6488 137.768 80.4049 138.001 80.0996L138.766 80.708C138.607 80.9495 138.404 81.1797 138.158 81.3984C137.912 81.6172 137.609 81.7949 137.249 81.9316C136.893 82.0684 136.472 82.1367 135.984 82.1367ZM147.1 78.0967H144.441V77.0234H147.1C147.615 77.0234 148.032 76.9414 148.351 76.7773C148.67 76.6133 148.902 76.3854 149.048 76.0938C149.199 75.8021 149.274 75.4694 149.274 75.0957C149.274 74.7539 149.199 74.4326 149.048 74.1318C148.902 73.8311 148.67 73.5895 148.351 73.4072C148.032 73.2204 147.615 73.127 147.1 73.127H144.748V82H143.429V72.0469H147.1C147.852 72.0469 148.488 72.1768 149.007 72.4365C149.527 72.6963 149.921 73.0563 150.19 73.5166C150.459 73.9723 150.593 74.4941 150.593 75.082C150.593 75.7201 150.459 76.2646 150.19 76.7158C149.921 77.167 149.527 77.5111 149.007 77.748C148.488 77.9805 147.852 78.0967 147.1 78.0967ZM153.048 75.7656V82H151.783V74.6035H153.013L153.048 75.7656ZM155.358 74.5625L155.351 75.7383C155.246 75.7155 155.146 75.7018 155.05 75.6973C154.959 75.6882 154.854 75.6836 154.736 75.6836C154.444 75.6836 154.187 75.7292 153.964 75.8203C153.74 75.9115 153.551 76.0391 153.396 76.2031C153.241 76.3672 153.118 76.5632 153.027 76.791C152.94 77.0143 152.883 77.2604 152.856 77.5293L152.501 77.7344C152.501 77.2878 152.544 76.8685 152.631 76.4766C152.722 76.0846 152.861 75.7383 153.048 75.4375C153.234 75.1322 153.471 74.8952 153.758 74.7266C154.05 74.5534 154.396 74.4668 154.798 74.4668C154.889 74.4668 154.993 74.4782 155.112 74.501C155.23 74.5192 155.312 74.5397 155.358 74.5625ZM155.768 78.3838V78.2266C155.768 77.6934 155.846 77.1989 156.001 76.7432C156.156 76.2829 156.379 75.8841 156.671 75.5469C156.962 75.2051 157.316 74.9408 157.73 74.7539C158.145 74.5625 158.61 74.4668 159.125 74.4668C159.644 74.4668 160.112 74.5625 160.526 74.7539C160.946 74.9408 161.301 75.2051 161.593 75.5469C161.889 75.8841 162.115 76.2829 162.269 76.7432C162.424 77.1989 162.502 77.6934 162.502 78.2266V78.3838C162.502 78.917 162.424 79.4115 162.269 79.8672C162.115 80.3229 161.889 80.7217 161.593 81.0635C161.301 81.4007 160.948 81.665 160.533 81.8564C160.123 82.0433 159.658 82.1367 159.139 82.1367C158.619 82.1367 158.152 82.0433 157.737 81.8564C157.323 81.665 156.967 81.4007 156.671 81.0635C156.379 80.7217 156.156 80.3229 156.001 79.8672C155.846 79.4115 155.768 78.917 155.768 78.3838ZM157.033 78.2266V78.3838C157.033 78.7529 157.076 79.1016 157.163 79.4297C157.25 79.7533 157.379 80.0404 157.553 80.291C157.73 80.5417 157.951 80.7399 158.216 80.8857C158.48 81.027 158.788 81.0977 159.139 81.0977C159.485 81.0977 159.788 81.027 160.048 80.8857C160.312 80.7399 160.531 80.5417 160.704 80.291C160.877 80.0404 161.007 79.7533 161.094 79.4297C161.185 79.1016 161.23 78.7529 161.23 78.3838V78.2266C161.23 77.862 161.185 77.5179 161.094 77.1943C161.007 76.8662 160.875 76.5768 160.697 76.3262C160.524 76.071 160.305 75.8704 160.041 75.7246C159.781 75.5788 159.476 75.5059 159.125 75.5059C158.779 75.5059 158.473 75.5788 158.209 75.7246C157.949 75.8704 157.73 76.071 157.553 76.3262C157.379 76.5768 157.25 76.8662 157.163 77.1943C157.076 77.5179 157.033 77.862 157.033 78.2266ZM168.463 80.5645V71.5H169.735V82H168.572L168.463 80.5645ZM163.487 78.3838V78.2402C163.487 77.6751 163.555 77.1624 163.692 76.7021C163.833 76.2373 164.031 75.8385 164.286 75.5059C164.546 75.1732 164.854 74.918 165.209 74.7402C165.569 74.5579 165.97 74.4668 166.412 74.4668C166.877 74.4668 167.283 74.5488 167.629 74.7129C167.98 74.8724 168.276 75.1071 168.518 75.417C168.764 75.7223 168.958 76.0915 169.099 76.5244C169.24 76.9574 169.338 77.4473 169.393 77.9941V78.623C169.343 79.1654 169.245 79.653 169.099 80.0859C168.958 80.5189 168.764 80.888 168.518 81.1934C168.276 81.4987 167.98 81.7334 167.629 81.8975C167.278 82.057 166.868 82.1367 166.399 82.1367C165.966 82.1367 165.569 82.0433 165.209 81.8564C164.854 81.6696 164.546 81.4076 164.286 81.0703C164.031 80.7331 163.833 80.3366 163.692 79.8809C163.555 79.4206 163.487 78.9215 163.487 78.3838ZM164.758 78.2402V78.3838C164.758 78.7529 164.794 79.0993 164.867 79.4229C164.945 79.7464 165.063 80.0312 165.223 80.2773C165.382 80.5234 165.585 80.7171 165.831 80.8584C166.077 80.9951 166.371 81.0635 166.713 81.0635C167.132 81.0635 167.476 80.9746 167.745 80.7969C168.019 80.6191 168.237 80.3844 168.402 80.0928C168.566 79.8011 168.693 79.4844 168.784 79.1426V77.4951C168.73 77.2445 168.65 77.0029 168.545 76.7705C168.445 76.5335 168.313 76.3239 168.149 76.1416C167.989 75.9548 167.791 75.8066 167.554 75.6973C167.321 75.5879 167.046 75.5332 166.727 75.5332C166.38 75.5332 166.082 75.6061 165.831 75.752C165.585 75.8932 165.382 76.0892 165.223 76.3398C165.063 76.5859 164.945 76.873 164.867 77.2012C164.794 77.5247 164.758 77.8711 164.758 78.2402ZM175.942 80.291V74.6035H177.213V82H176.003L175.942 80.291ZM176.181 78.7324L176.707 78.7188C176.707 79.2109 176.655 79.6667 176.55 80.0859C176.45 80.5007 176.286 80.8607 176.058 81.166C175.83 81.4714 175.532 81.7106 175.163 81.8838C174.793 82.0524 174.345 82.1367 173.816 82.1367C173.456 82.1367 173.125 82.0843 172.825 81.9795C172.528 81.8747 172.273 81.7129 172.059 81.4941C171.845 81.2754 171.679 80.9906 171.56 80.6396C171.446 80.2887 171.389 79.8672 171.389 79.375V74.6035H172.654V79.3887C172.654 79.7214 172.69 79.9971 172.763 80.2158C172.841 80.43 172.943 80.6009 173.071 80.7285C173.203 80.8516 173.349 80.9382 173.508 80.9883C173.672 81.0384 173.841 81.0635 174.014 81.0635C174.552 81.0635 174.978 80.9609 175.292 80.7559C175.607 80.5462 175.832 80.266 175.969 79.915C176.11 79.5596 176.181 79.1654 176.181 78.7324ZM181.814 81.0977C182.115 81.0977 182.393 81.0361 182.648 80.9131C182.903 80.79 183.113 80.6214 183.277 80.4072C183.441 80.1885 183.535 79.9401 183.557 79.6621H184.76C184.738 80.0996 184.59 80.5075 184.316 80.8857C184.047 81.2594 183.694 81.5625 183.257 81.7949C182.819 82.0228 182.338 82.1367 181.814 82.1367C181.258 82.1367 180.773 82.0387 180.358 81.8428C179.948 81.6468 179.606 81.3779 179.333 81.0361C179.064 80.6943 178.861 80.3024 178.724 79.8604C178.592 79.4137 178.526 78.9421 178.526 78.4453V78.1582C178.526 77.6615 178.592 77.1921 178.724 76.75C178.861 76.3034 179.064 75.9092 179.333 75.5674C179.606 75.2256 179.948 74.9567 180.358 74.7607C180.773 74.5648 181.258 74.4668 181.814 74.4668C182.393 74.4668 182.899 74.5853 183.332 74.8223C183.765 75.0547 184.104 75.3737 184.35 75.7793C184.601 76.1803 184.738 76.6361 184.76 77.1465H183.557C183.535 76.8411 183.448 76.5654 183.298 76.3193C183.152 76.0732 182.951 75.8773 182.696 75.7314C182.445 75.5811 182.151 75.5059 181.814 75.5059C181.427 75.5059 181.101 75.5833 180.837 75.7383C180.577 75.8887 180.37 76.0938 180.215 76.3535C180.064 76.6087 179.955 76.8936 179.886 77.208C179.823 77.5179 179.791 77.8346 179.791 78.1582V78.4453C179.791 78.7689 179.823 79.0879 179.886 79.4023C179.95 79.7168 180.057 80.0016 180.208 80.2568C180.363 80.512 180.57 80.7171 180.83 80.8721C181.094 81.0225 181.422 81.0977 181.814 81.0977ZM188.992 74.6035V75.5742H184.993V74.6035H188.992ZM186.347 72.8057H187.611V80.168C187.611 80.4186 187.65 80.6077 187.728 80.7354C187.805 80.863 187.905 80.9473 188.028 80.9883C188.151 81.0293 188.284 81.0498 188.425 81.0498C188.53 81.0498 188.639 81.0407 188.753 81.0225C188.871 80.9997 188.96 80.9814 189.02 80.9678L189.026 82C188.926 82.0319 188.794 82.0615 188.63 82.0889C188.47 82.1208 188.277 82.1367 188.049 82.1367C187.739 82.1367 187.454 82.0752 187.194 81.9521C186.935 81.8291 186.727 81.624 186.572 81.3369C186.422 81.0452 186.347 80.6533 186.347 80.1611V72.8057Z" fill="#323C47"/>
<path opacity="0.696388" d="M52.9155 43.1367V51H51.9219V44.3774L49.9185 45.1079V44.2109L52.7598 43.1367H52.9155ZM58.7875 43.1367V51H57.7938V44.3774L55.7904 45.1079V44.2109L58.6317 43.1367H58.7875ZM61.4583 50.4736C61.4583 50.3053 61.5102 50.1639 61.6141 50.0493C61.7215 49.9312 61.8755 49.8721 62.076 49.8721C62.2765 49.8721 62.4287 49.9312 62.5325 50.0493C62.6399 50.1639 62.6937 50.3053 62.6937 50.4736C62.6937 50.6383 62.6399 50.778 62.5325 50.8926C62.4287 51.0072 62.2765 51.0645 62.076 51.0645C61.8755 51.0645 61.7215 51.0072 61.6141 50.8926C61.5102 50.778 61.4583 50.6383 61.4583 50.4736ZM61.4637 45.731C61.4637 45.5627 61.5156 45.4212 61.6194 45.3066C61.7269 45.1885 61.8808 45.1294 62.0813 45.1294C62.2819 45.1294 62.4341 45.1885 62.5379 45.3066C62.6453 45.4212 62.699 45.5627 62.699 45.731C62.699 45.8957 62.6453 46.0353 62.5379 46.1499C62.4341 46.2645 62.2819 46.3218 62.0813 46.3218C61.8808 46.3218 61.7269 46.2645 61.6194 46.1499C61.5156 46.0353 61.4637 45.8957 61.4637 45.731ZM68.6516 46.4668V47.6592C68.6516 48.3001 68.5943 48.8408 68.4797 49.2812C68.3651 49.7217 68.2004 50.0762 67.9855 50.3447C67.7707 50.6133 67.5111 50.8084 67.2067 50.9302C66.906 51.0483 66.5658 51.1074 66.1862 51.1074C65.8855 51.1074 65.6079 51.0698 65.3537 50.9946C65.0995 50.9194 64.8703 50.7995 64.6662 50.6348C64.4657 50.4665 64.2938 50.248 64.1506 49.9795C64.0074 49.7109 63.8981 49.3851 63.823 49.002C63.7478 48.6188 63.7102 48.1712 63.7102 47.6592V46.4668C63.7102 45.8258 63.7675 45.2887 63.882 44.8555C64.0002 44.4222 64.1667 44.0749 64.3815 43.8135C64.5964 43.5485 64.8542 43.3587 65.155 43.2441C65.4593 43.1296 65.7995 43.0723 66.1755 43.0723C66.4799 43.0723 66.7592 43.1099 67.0134 43.1851C67.2712 43.2567 67.5004 43.373 67.7009 43.5342C67.9014 43.6917 68.0715 43.903 68.2111 44.168C68.3544 44.4294 68.4636 44.7498 68.5388 45.1294C68.614 45.509 68.6516 45.9548 68.6516 46.4668ZM67.6525 47.8203V46.3003C67.6525 45.9494 67.6311 45.6414 67.5881 45.3765C67.5487 45.1079 67.4896 44.8787 67.4108 44.689C67.3321 44.4992 67.2318 44.3452 67.1101 44.2271C66.9919 44.1089 66.854 44.0229 66.6965 43.9692C66.5425 43.9119 66.3689 43.8833 66.1755 43.8833C65.9392 43.8833 65.7297 43.9281 65.5471 44.0176C65.3645 44.1035 65.2105 44.2414 65.0852 44.4312C64.9634 44.6209 64.8703 44.8698 64.8059 45.1777C64.7414 45.4857 64.7092 45.8599 64.7092 46.3003V47.8203C64.7092 48.1712 64.7289 48.481 64.7683 48.7495C64.8112 49.0181 64.8739 49.2508 64.9563 49.4478C65.0386 49.6411 65.1389 49.8005 65.257 49.9258C65.3752 50.0511 65.5113 50.1442 65.6652 50.2051C65.8228 50.2624 65.9965 50.291 66.1862 50.291C66.4297 50.291 66.6428 50.2445 66.8254 50.1514C67.008 50.0583 67.1602 49.9132 67.2819 49.7163C67.4073 49.5158 67.5004 49.2598 67.5612 48.9482C67.6221 48.6331 67.6525 48.2572 67.6525 47.8203ZM74.5235 46.4668V47.6592C74.5235 48.3001 74.4662 48.8408 74.3517 49.2812C74.2371 49.7217 74.0724 50.0762 73.8575 50.3447C73.6427 50.6133 73.3831 50.8084 73.0787 50.9302C72.7779 51.0483 72.4378 51.1074 72.0582 51.1074C71.7574 51.1074 71.4799 51.0698 71.2257 50.9946C70.9715 50.9194 70.7423 50.7995 70.5382 50.6348C70.3377 50.4665 70.1658 50.248 70.0226 49.9795C69.8793 49.7109 69.7701 49.3851 69.6949 49.002C69.6197 48.6188 69.5821 48.1712 69.5821 47.6592V46.4668C69.5821 45.8258 69.6394 45.2887 69.754 44.8555C69.8722 44.4222 70.0387 44.0749 70.2535 43.8135C70.4684 43.5485 70.7262 43.3587 71.027 43.2441C71.3313 43.1296 71.6715 43.0723 72.0475 43.0723C72.3518 43.0723 72.6311 43.1099 72.8854 43.1851C73.1432 43.2567 73.3723 43.373 73.5729 43.5342C73.7734 43.6917 73.9435 43.903 74.0831 44.168C74.2263 44.4294 74.3356 44.7498 74.4107 45.1294C74.4859 45.509 74.5235 45.9548 74.5235 46.4668ZM73.5245 47.8203V46.3003C73.5245 45.9494 73.503 45.6414 73.4601 45.3765C73.4207 45.1079 73.3616 44.8787 73.2828 44.689C73.204 44.4992 73.1038 44.3452 72.982 44.2271C72.8639 44.1089 72.726 44.0229 72.5685 43.9692C72.4145 43.9119 72.2408 43.8833 72.0475 43.8833C71.8111 43.8833 71.6017 43.9281 71.419 44.0176C71.2364 44.1035 71.0825 44.2414 70.9571 44.4312C70.8354 44.6209 70.7423 44.8698 70.6778 45.1777C70.6134 45.4857 70.5812 45.8599 70.5812 46.3003V47.8203C70.5812 48.1712 70.6008 48.481 70.6402 48.7495C70.6832 49.0181 70.7459 49.2508 70.8282 49.4478C70.9106 49.6411 71.0108 49.8005 71.129 49.9258C71.2472 50.0511 71.3832 50.1442 71.5372 50.2051C71.6948 50.2624 71.8684 50.291 72.0582 50.291C72.3017 50.291 72.5147 50.2445 72.6974 50.1514C72.88 50.0583 73.0322 49.9132 73.1539 49.7163C73.2792 49.5158 73.3723 49.2598 73.4332 48.9482C73.4941 48.6331 73.5245 48.2572 73.5245 47.8203ZM80.7065 44.5205L78.3529 51H77.391L80.101 43.8906H80.7211L80.7065 44.5205ZM82.6791 51L80.3207 44.5205L80.3061 43.8906H80.9262L83.6459 51H82.6791ZM82.557 48.3682V49.1396H78.5629V48.3682H82.557ZM84.5804 43.8906H85.4935L87.8226 49.6865L90.1468 43.8906H91.0648L88.1741 51H87.4612L84.5804 43.8906ZM84.2825 43.8906H85.0882L85.22 48.2266V51H84.2825V43.8906ZM90.5521 43.8906H91.3577V51H90.4202V48.2266L90.5521 43.8906ZM97.1105 47.2671V48.0835H94.4894V47.2671H97.1105ZM103.338 43.1367V51H102.345V44.3774L100.341 45.1079V44.2109L103.183 43.1367H103.338ZM109.21 43.1367V51H108.217V44.3774L106.213 45.1079V44.2109L109.055 43.1367H109.21ZM111.881 50.4736C111.881 50.3053 111.933 50.1639 112.037 50.0493C112.144 49.9312 112.298 49.8721 112.499 49.8721C112.699 49.8721 112.851 49.9312 112.955 50.0493C113.063 50.1639 113.116 50.3053 113.116 50.4736C113.116 50.6383 113.063 50.778 112.955 50.8926C112.851 51.0072 112.699 51.0645 112.499 51.0645C112.298 51.0645 112.144 51.0072 112.037 50.8926C111.933 50.778 111.881 50.6383 111.881 50.4736ZM111.886 45.731C111.886 45.5627 111.938 45.4212 112.042 45.3066C112.15 45.1885 112.304 45.1294 112.504 45.1294C112.705 45.1294 112.857 45.1885 112.961 45.3066C113.068 45.4212 113.122 45.5627 113.122 45.731C113.122 45.8957 113.068 46.0353 112.961 46.1499C112.857 46.2645 112.705 46.3218 112.504 46.3218C112.304 46.3218 112.15 46.2645 112.042 46.1499C111.938 46.0353 111.886 45.8957 111.886 45.731ZM115.615 46.6011H116.324C116.672 46.6011 116.958 46.5438 117.184 46.4292C117.413 46.311 117.583 46.1517 117.694 45.9512C117.809 45.7471 117.866 45.5179 117.866 45.2637C117.866 44.9629 117.816 44.7104 117.715 44.5063C117.615 44.3022 117.465 44.1483 117.264 44.0444C117.064 43.9406 116.81 43.8887 116.502 43.8887C116.222 43.8887 115.975 43.9442 115.76 44.0552C115.549 44.1626 115.383 44.3166 115.261 44.5171C115.143 44.7176 115.084 44.9539 115.084 45.2261H114.09C114.09 44.8286 114.19 44.467 114.391 44.1411C114.591 43.8153 114.872 43.5557 115.234 43.3623C115.599 43.1689 116.022 43.0723 116.502 43.0723C116.974 43.0723 117.388 43.1564 117.742 43.3247C118.097 43.4894 118.373 43.7365 118.569 44.0659C118.766 44.3918 118.865 44.7982 118.865 45.2852C118.865 45.4821 118.818 45.6934 118.725 45.9189C118.636 46.141 118.494 46.3486 118.301 46.542C118.111 46.7354 117.864 46.8947 117.56 47.02C117.255 47.1418 116.89 47.2026 116.464 47.2026H115.615V46.6011ZM115.615 47.4175V46.8213H116.464C116.962 46.8213 117.373 46.8804 117.699 46.9985C118.025 47.1167 118.281 47.2743 118.467 47.4712C118.657 47.6681 118.79 47.8848 118.865 48.1211C118.944 48.3538 118.983 48.5866 118.983 48.8193C118.983 49.1846 118.92 49.5086 118.795 49.7915C118.673 50.0744 118.5 50.3143 118.274 50.5112C118.052 50.7082 117.791 50.8568 117.49 50.957C117.189 51.0573 116.861 51.1074 116.507 51.1074C116.167 51.1074 115.846 51.0591 115.546 50.9624C115.248 50.8657 114.985 50.7261 114.756 50.5435C114.527 50.3573 114.348 50.1299 114.219 49.8613C114.09 49.5892 114.026 49.2795 114.026 48.9321H115.019C115.019 49.2043 115.078 49.4424 115.196 49.6465C115.318 49.8506 115.49 50.0099 115.712 50.1245C115.938 50.2355 116.203 50.291 116.507 50.291C116.811 50.291 117.073 50.2391 117.291 50.1353C117.513 50.0278 117.683 49.8667 117.801 49.6519C117.923 49.437 117.984 49.1667 117.984 48.8408C117.984 48.515 117.916 48.2482 117.78 48.0405C117.644 47.8293 117.45 47.6735 117.2 47.5732C116.953 47.4694 116.661 47.4175 116.324 47.4175H115.615ZM124.946 46.4668V47.6592C124.946 48.3001 124.889 48.8408 124.774 49.2812C124.66 49.7217 124.495 50.0762 124.28 50.3447C124.065 50.6133 123.806 50.8084 123.501 50.9302C123.201 51.0483 122.861 51.1074 122.481 51.1074C122.18 51.1074 121.903 51.0698 121.648 50.9946C121.394 50.9194 121.165 50.7995 120.961 50.6348C120.76 50.4665 120.589 50.248 120.445 49.9795C120.302 49.7109 120.193 49.3851 120.118 49.002C120.042 48.6188 120.005 48.1712 120.005 47.6592V46.4668C120.005 45.8258 120.062 45.2887 120.177 44.8555C120.295 44.4222 120.461 44.0749 120.676 43.8135C120.891 43.5485 121.149 43.3587 121.45 43.2441C121.754 43.1296 122.094 43.0723 122.47 43.0723C122.775 43.0723 123.054 43.1099 123.308 43.1851C123.566 43.2567 123.795 43.373 123.996 43.5342C124.196 43.6917 124.366 43.903 124.506 44.168C124.649 44.4294 124.758 44.7498 124.834 45.1294C124.909 45.509 124.946 45.9548 124.946 46.4668ZM123.947 47.8203V46.3003C123.947 45.9494 123.926 45.6414 123.883 45.3765C123.843 45.1079 123.784 44.8787 123.706 44.689C123.627 44.4992 123.527 44.3452 123.405 44.2271C123.287 44.1089 123.149 44.0229 122.991 43.9692C122.837 43.9119 122.664 43.8833 122.47 43.8833C122.234 43.8833 122.024 43.9281 121.842 44.0176C121.659 44.1035 121.505 44.2414 121.38 44.4312C121.258 44.6209 121.165 44.8698 121.101 45.1777C121.036 45.4857 121.004 45.8599 121.004 46.3003V47.8203C121.004 48.1712 121.024 48.481 121.063 48.7495C121.106 49.0181 121.169 49.2508 121.251 49.4478C121.333 49.6411 121.434 49.8005 121.552 49.9258C121.67 50.0511 121.806 50.1442 121.96 50.2051C122.118 50.2624 122.291 50.291 122.481 50.291C122.724 50.291 122.938 50.2445 123.12 50.1514C123.303 50.0583 123.455 49.9132 123.577 49.7163C123.702 49.5158 123.795 49.2598 123.856 48.9482C123.917 48.6331 123.947 48.2572 123.947 47.8203ZM131.129 44.5205L128.776 51H127.814L130.524 43.8906H131.144L131.129 44.5205ZM133.102 51L130.743 44.5205L130.729 43.8906H131.349L134.069 51H133.102ZM132.98 48.3682V49.1396H128.986V48.3682H132.98ZM135.003 43.8906H135.916L138.245 49.6865L140.57 43.8906H141.488L138.597 51H137.884L135.003 43.8906ZM134.705 43.8906H135.511L135.643 48.2266V51H134.705V43.8906ZM140.975 43.8906H141.78V51H140.843V48.2266L140.975 43.8906Z" fill="#868686"/>
<path opacity="0.696388" d="M215.56 123.852V131H214.656V124.979L212.835 125.644V124.828L215.418 123.852H215.56ZM222.392 126.879V127.963C222.392 128.546 222.34 129.037 222.236 129.438C222.131 129.838 221.982 130.16 221.786 130.404C221.591 130.648 221.355 130.826 221.078 130.937C220.805 131.044 220.496 131.098 220.151 131.098C219.877 131.098 219.625 131.063 219.394 130.995C219.163 130.927 218.954 130.818 218.769 130.668C218.587 130.515 218.43 130.316 218.3 130.072C218.17 129.828 218.071 129.532 218.002 129.184C217.934 128.835 217.9 128.428 217.9 127.963V126.879C217.9 126.296 217.952 125.808 218.056 125.414C218.163 125.02 218.315 124.704 218.51 124.467C218.705 124.226 218.94 124.053 219.213 123.949C219.49 123.845 219.799 123.793 220.141 123.793C220.418 123.793 220.671 123.827 220.903 123.896C221.137 123.961 221.345 124.066 221.528 124.213C221.71 124.356 221.865 124.548 221.991 124.789C222.122 125.027 222.221 125.318 222.289 125.663C222.358 126.008 222.392 126.413 222.392 126.879ZM221.484 128.109V126.728C221.484 126.409 221.464 126.129 221.425 125.888C221.389 125.644 221.336 125.435 221.264 125.263C221.192 125.09 221.101 124.95 220.991 124.843C220.883 124.735 220.758 124.657 220.615 124.608C220.475 124.556 220.317 124.53 220.141 124.53C219.926 124.53 219.736 124.571 219.57 124.652C219.404 124.73 219.264 124.856 219.15 125.028C219.039 125.201 218.954 125.427 218.896 125.707C218.837 125.987 218.808 126.327 218.808 126.728V128.109C218.808 128.428 218.826 128.71 218.862 128.954C218.901 129.198 218.958 129.41 219.032 129.589C219.107 129.765 219.199 129.91 219.306 130.023C219.413 130.137 219.537 130.222 219.677 130.277C219.82 130.329 219.978 130.355 220.151 130.355C220.372 130.355 220.566 130.313 220.732 130.229C220.898 130.144 221.036 130.012 221.147 129.833C221.261 129.651 221.345 129.418 221.401 129.135C221.456 128.848 221.484 128.507 221.484 128.109ZM228.674 130.097V127.377C228.674 127.169 228.631 126.988 228.547 126.835C228.465 126.679 228.342 126.558 228.176 126.474C228.01 126.389 227.805 126.347 227.56 126.347C227.333 126.347 227.132 126.386 226.96 126.464C226.791 126.542 226.657 126.645 226.559 126.771C226.465 126.898 226.418 127.035 226.418 127.182H225.514C225.514 126.993 225.563 126.806 225.661 126.62C225.759 126.435 225.899 126.267 226.081 126.117C226.266 125.964 226.488 125.844 226.745 125.756C227.005 125.665 227.295 125.619 227.614 125.619C227.998 125.619 228.337 125.684 228.63 125.814C228.926 125.945 229.157 126.142 229.323 126.405C229.492 126.666 229.577 126.993 229.577 127.387V129.848C229.577 130.023 229.592 130.211 229.621 130.409C229.653 130.608 229.701 130.779 229.763 130.922V131H228.82C228.775 130.896 228.739 130.757 228.713 130.585C228.687 130.409 228.674 130.246 228.674 130.097ZM228.83 127.797L228.84 128.432H227.927C227.669 128.432 227.44 128.453 227.238 128.495C227.036 128.534 226.867 128.594 226.73 128.676C226.594 128.757 226.489 128.86 226.418 128.983C226.346 129.104 226.31 129.245 226.31 129.408C226.31 129.574 226.348 129.726 226.423 129.862C226.498 129.999 226.61 130.108 226.76 130.189C226.913 130.268 227.1 130.307 227.321 130.307C227.598 130.307 227.842 130.248 228.054 130.131C228.265 130.014 228.433 129.87 228.556 129.701C228.683 129.532 228.752 129.368 228.762 129.208L229.147 129.643C229.124 129.779 229.063 129.931 228.962 130.097C228.861 130.263 228.726 130.422 228.556 130.575C228.39 130.725 228.192 130.85 227.961 130.951C227.733 131.049 227.476 131.098 227.189 131.098C226.831 131.098 226.517 131.028 226.247 130.888C225.98 130.748 225.772 130.561 225.622 130.326C225.475 130.089 225.402 129.823 225.402 129.53C225.402 129.247 225.458 128.998 225.568 128.783C225.679 128.565 225.838 128.384 226.047 128.241C226.255 128.095 226.506 127.984 226.799 127.909C227.092 127.834 227.419 127.797 227.78 127.797H228.83ZM232.923 125.717V126.41H230.066V125.717H232.923ZM231.033 124.433H231.937V129.691C231.937 129.87 231.964 130.006 232.02 130.097C232.075 130.188 232.147 130.248 232.234 130.277C232.322 130.307 232.417 130.321 232.518 130.321C232.593 130.321 232.671 130.315 232.752 130.302C232.837 130.285 232.9 130.272 232.942 130.263L232.947 131C232.876 131.023 232.781 131.044 232.664 131.063C232.55 131.086 232.412 131.098 232.249 131.098C232.028 131.098 231.824 131.054 231.639 130.966C231.453 130.878 231.305 130.731 231.194 130.526C231.087 130.318 231.033 130.038 231.033 129.687V124.433ZM235.908 125.717V126.41H233.051V125.717H235.908ZM234.018 124.433H234.921V129.691C234.921 129.87 234.949 130.006 235.004 130.097C235.06 130.188 235.131 130.248 235.219 130.277C235.307 130.307 235.401 130.321 235.502 130.321C235.577 130.321 235.655 130.315 235.737 130.302C235.821 130.285 235.885 130.272 235.927 130.263L235.932 131C235.86 131.023 235.766 131.044 235.649 131.063C235.535 131.086 235.397 131.098 235.234 131.098C235.012 131.098 234.809 131.054 234.623 130.966C234.438 130.878 234.29 130.731 234.179 130.526C234.072 130.318 234.018 130.038 234.018 129.687V124.433ZM239.796 130.097V127.377C239.796 127.169 239.753 126.988 239.669 126.835C239.587 126.679 239.464 126.558 239.298 126.474C239.131 126.389 238.926 126.347 238.682 126.347C238.454 126.347 238.254 126.386 238.082 126.464C237.912 126.542 237.779 126.645 237.681 126.771C237.587 126.898 237.54 127.035 237.54 127.182H236.636C236.636 126.993 236.685 126.806 236.783 126.62C236.881 126.435 237.02 126.267 237.203 126.117C237.388 125.964 237.61 125.844 237.867 125.756C238.127 125.665 238.417 125.619 238.736 125.619C239.12 125.619 239.459 125.684 239.752 125.814C240.048 125.945 240.279 126.142 240.445 126.405C240.614 126.666 240.699 126.993 240.699 127.387V129.848C240.699 130.023 240.714 130.211 240.743 130.409C240.775 130.608 240.823 130.779 240.884 130.922V131H239.942C239.896 130.896 239.861 130.757 239.835 130.585C239.809 130.409 239.796 130.246 239.796 130.097ZM239.952 127.797L239.962 128.432H239.048C238.791 128.432 238.562 128.453 238.36 128.495C238.158 128.534 237.989 128.594 237.852 128.676C237.715 128.757 237.611 128.86 237.54 128.983C237.468 129.104 237.432 129.245 237.432 129.408C237.432 129.574 237.47 129.726 237.545 129.862C237.619 129.999 237.732 130.108 237.881 130.189C238.034 130.268 238.222 130.307 238.443 130.307C238.72 130.307 238.964 130.248 239.175 130.131C239.387 130.014 239.555 129.87 239.678 129.701C239.805 129.532 239.874 129.368 239.883 129.208L240.269 129.643C240.246 129.779 240.185 129.931 240.084 130.097C239.983 130.263 239.848 130.422 239.678 130.575C239.512 130.725 239.314 130.85 239.083 130.951C238.855 131.049 238.598 131.098 238.311 131.098C237.953 131.098 237.639 131.028 237.369 130.888C237.102 130.748 236.894 130.561 236.744 130.326C236.597 130.089 236.524 129.823 236.524 129.53C236.524 129.247 236.579 128.998 236.69 128.783C236.801 128.565 236.96 128.384 237.169 128.241C237.377 128.095 237.628 127.984 237.921 127.909C238.214 127.834 238.541 127.797 238.902 127.797H239.952ZM243.947 130.355C244.162 130.355 244.361 130.312 244.543 130.224C244.725 130.136 244.875 130.015 244.992 129.862C245.109 129.706 245.176 129.529 245.192 129.33H246.052C246.035 129.643 245.93 129.934 245.734 130.204C245.542 130.471 245.29 130.688 244.977 130.854C244.665 131.016 244.322 131.098 243.947 131.098C243.55 131.098 243.203 131.028 242.907 130.888C242.614 130.748 242.37 130.556 242.175 130.312C241.983 130.067 241.838 129.787 241.74 129.472C241.646 129.153 241.599 128.816 241.599 128.461V128.256C241.599 127.901 241.646 127.566 241.74 127.25C241.838 126.931 241.983 126.649 242.175 126.405C242.37 126.161 242.614 125.969 242.907 125.829C243.203 125.689 243.55 125.619 243.947 125.619C244.361 125.619 244.722 125.704 245.031 125.873C245.34 126.039 245.583 126.267 245.759 126.557C245.938 126.843 246.035 127.169 246.052 127.533H245.192C245.176 127.315 245.114 127.118 245.007 126.942C244.903 126.767 244.759 126.627 244.577 126.522C244.398 126.415 244.188 126.361 243.947 126.361C243.67 126.361 243.438 126.417 243.249 126.527C243.063 126.635 242.915 126.781 242.805 126.967C242.697 127.149 242.619 127.353 242.57 127.577C242.525 127.799 242.502 128.025 242.502 128.256V128.461C242.502 128.692 242.525 128.92 242.57 129.145C242.616 129.369 242.692 129.573 242.8 129.755C242.91 129.937 243.059 130.084 243.244 130.194C243.433 130.302 243.667 130.355 243.947 130.355ZM247.684 123.5V131H246.78V123.5H247.684ZM247.469 128.158L247.093 128.144C247.096 127.782 247.15 127.449 247.254 127.143C247.358 126.833 247.505 126.565 247.694 126.337C247.882 126.109 248.107 125.933 248.367 125.81C248.631 125.683 248.922 125.619 249.241 125.619C249.502 125.619 249.736 125.655 249.945 125.727C250.153 125.795 250.33 125.906 250.477 126.059C250.626 126.212 250.74 126.41 250.819 126.654C250.897 126.895 250.936 127.19 250.936 127.538V131H250.028V127.528C250.028 127.252 249.987 127.03 249.905 126.864C249.824 126.695 249.705 126.573 249.549 126.498C249.393 126.42 249.201 126.381 248.973 126.381C248.748 126.381 248.543 126.428 248.358 126.522C248.175 126.617 248.017 126.747 247.884 126.913C247.754 127.079 247.651 127.27 247.576 127.484C247.505 127.696 247.469 127.921 247.469 128.158ZM254.194 131.098C253.826 131.098 253.492 131.036 253.193 130.912C252.897 130.785 252.641 130.608 252.426 130.38C252.215 130.152 252.052 129.882 251.938 129.569C251.824 129.257 251.767 128.915 251.767 128.544V128.339C251.767 127.909 251.831 127.527 251.957 127.191C252.084 126.853 252.257 126.566 252.475 126.332C252.693 126.098 252.941 125.92 253.217 125.8C253.494 125.679 253.78 125.619 254.077 125.619C254.454 125.619 254.78 125.684 255.053 125.814C255.33 125.945 255.556 126.127 255.732 126.361C255.908 126.592 256.038 126.866 256.123 127.182C256.207 127.494 256.249 127.836 256.249 128.207V128.612H252.304V127.875H255.346V127.807C255.333 127.572 255.284 127.344 255.2 127.123C255.118 126.902 254.988 126.719 254.809 126.576C254.63 126.433 254.386 126.361 254.077 126.361C253.872 126.361 253.683 126.405 253.51 126.493C253.338 126.578 253.19 126.705 253.066 126.874C252.942 127.043 252.846 127.25 252.778 127.494C252.709 127.738 252.675 128.02 252.675 128.339V128.544C252.675 128.795 252.709 129.031 252.778 129.252C252.849 129.47 252.952 129.662 253.085 129.828C253.222 129.994 253.387 130.124 253.579 130.219C253.774 130.313 253.995 130.36 254.243 130.36C254.562 130.36 254.832 130.295 255.053 130.165C255.275 130.035 255.468 129.861 255.634 129.643L256.181 130.077C256.067 130.25 255.922 130.414 255.747 130.57C255.571 130.727 255.354 130.854 255.097 130.951C254.843 131.049 254.542 131.098 254.194 131.098ZM257.916 126.767V131H257.008V125.717H257.867L257.916 126.767ZM257.73 128.158L257.31 128.144C257.314 127.782 257.361 127.449 257.452 127.143C257.543 126.833 257.678 126.565 257.857 126.337C258.036 126.109 258.259 125.933 258.526 125.81C258.793 125.683 259.102 125.619 259.454 125.619C259.701 125.619 259.929 125.655 260.137 125.727C260.346 125.795 260.526 125.904 260.679 126.054C260.832 126.203 260.951 126.396 261.036 126.63C261.121 126.864 261.163 127.147 261.163 127.479V131H260.26V127.523C260.26 127.247 260.212 127.025 260.118 126.859C260.027 126.693 259.897 126.573 259.727 126.498C259.558 126.42 259.359 126.381 259.132 126.381C258.865 126.381 258.642 126.428 258.463 126.522C258.284 126.617 258.14 126.747 258.033 126.913C257.926 127.079 257.847 127.27 257.799 127.484C257.753 127.696 257.73 127.921 257.73 128.158ZM261.153 127.66L260.548 127.846C260.551 127.556 260.598 127.278 260.689 127.011C260.784 126.744 260.919 126.506 261.094 126.298C261.274 126.09 261.493 125.925 261.754 125.805C262.014 125.681 262.312 125.619 262.647 125.619C262.93 125.619 263.181 125.657 263.399 125.731C263.621 125.806 263.806 125.922 263.956 126.078C264.109 126.231 264.224 126.428 264.302 126.669C264.381 126.91 264.42 127.196 264.42 127.528V131H263.511V127.519C263.511 127.222 263.464 126.993 263.37 126.83C263.279 126.664 263.149 126.549 262.979 126.483C262.813 126.415 262.615 126.381 262.384 126.381C262.185 126.381 262.009 126.415 261.856 126.483C261.703 126.552 261.575 126.646 261.47 126.767C261.366 126.884 261.287 127.019 261.231 127.172C261.179 127.325 261.153 127.488 261.153 127.66ZM267.692 131.098C267.325 131.098 266.991 131.036 266.691 130.912C266.395 130.785 266.14 130.608 265.925 130.38C265.713 130.152 265.55 129.882 265.437 129.569C265.323 129.257 265.266 128.915 265.266 128.544V128.339C265.266 127.909 265.329 127.527 265.456 127.191C265.583 126.853 265.756 126.566 265.974 126.332C266.192 126.098 266.439 125.92 266.716 125.8C266.993 125.679 267.279 125.619 267.575 125.619C267.953 125.619 268.278 125.684 268.552 125.814C268.828 125.945 269.055 126.127 269.23 126.361C269.406 126.592 269.536 126.866 269.621 127.182C269.706 127.494 269.748 127.836 269.748 128.207V128.612H265.803V127.875H268.845V127.807C268.832 127.572 268.783 127.344 268.698 127.123C268.617 126.902 268.487 126.719 268.308 126.576C268.129 126.433 267.884 126.361 267.575 126.361C267.37 126.361 267.181 126.405 267.009 126.493C266.836 126.578 266.688 126.705 266.564 126.874C266.441 127.043 266.345 127.25 266.276 127.494C266.208 127.738 266.174 128.02 266.174 128.339V128.544C266.174 128.795 266.208 129.031 266.276 129.252C266.348 129.47 266.451 129.662 266.584 129.828C266.721 129.994 266.885 130.124 267.077 130.219C267.272 130.313 267.494 130.36 267.741 130.36C268.06 130.36 268.33 130.295 268.552 130.165C268.773 130.035 268.967 129.861 269.133 129.643L269.68 130.077C269.566 130.25 269.421 130.414 269.245 130.57C269.069 130.727 268.853 130.854 268.596 130.951C268.342 131.049 268.041 131.098 267.692 131.098ZM271.419 126.845V131H270.516V125.717H271.37L271.419 126.845ZM271.204 128.158L270.828 128.144C270.832 127.782 270.885 127.449 270.99 127.143C271.094 126.833 271.24 126.565 271.429 126.337C271.618 126.109 271.842 125.933 272.103 125.81C272.366 125.683 272.658 125.619 272.977 125.619C273.237 125.619 273.472 125.655 273.68 125.727C273.888 125.795 274.066 125.906 274.212 126.059C274.362 126.212 274.476 126.41 274.554 126.654C274.632 126.895 274.671 127.19 274.671 127.538V131H273.763V127.528C273.763 127.252 273.722 127.03 273.641 126.864C273.56 126.695 273.441 126.573 273.284 126.498C273.128 126.42 272.936 126.381 272.708 126.381C272.484 126.381 272.279 126.428 272.093 126.522C271.911 126.617 271.753 126.747 271.619 126.913C271.489 127.079 271.387 127.27 271.312 127.484C271.24 127.696 271.204 127.921 271.204 128.158ZM277.968 125.717V126.41H275.112V125.717H277.968ZM276.079 124.433H276.982V129.691C276.982 129.87 277.01 130.006 277.065 130.097C277.12 130.188 277.192 130.248 277.28 130.277C277.368 130.307 277.462 130.321 277.563 130.321C277.638 130.321 277.716 130.315 277.797 130.302C277.882 130.285 277.946 130.272 277.988 130.263L277.993 131C277.921 131.023 277.827 131.044 277.71 131.063C277.596 131.086 277.457 131.098 277.294 131.098C277.073 131.098 276.87 131.054 276.684 130.966C276.499 130.878 276.35 130.731 276.24 130.526C276.132 130.318 276.079 130.038 276.079 129.687V124.433ZM281.817 129.599C281.817 129.468 281.788 129.348 281.729 129.237C281.674 129.123 281.558 129.021 281.383 128.93C281.21 128.835 280.95 128.754 280.601 128.686C280.308 128.624 280.043 128.55 279.805 128.466C279.571 128.381 279.371 128.279 279.205 128.158C279.042 128.038 278.917 127.896 278.829 127.733C278.741 127.571 278.697 127.38 278.697 127.162C278.697 126.954 278.743 126.757 278.834 126.571C278.928 126.386 279.06 126.221 279.229 126.078C279.402 125.935 279.609 125.823 279.849 125.741C280.09 125.66 280.359 125.619 280.655 125.619C281.078 125.619 281.44 125.694 281.739 125.844C282.039 125.993 282.268 126.194 282.428 126.444C282.587 126.692 282.667 126.967 282.667 127.27H281.764C281.764 127.123 281.72 126.981 281.632 126.845C281.547 126.705 281.422 126.589 281.256 126.498C281.093 126.407 280.893 126.361 280.655 126.361C280.404 126.361 280.201 126.4 280.045 126.479C279.892 126.553 279.779 126.649 279.708 126.767C279.639 126.884 279.605 127.007 279.605 127.138C279.605 127.235 279.622 127.323 279.654 127.401C279.69 127.476 279.752 127.546 279.84 127.611C279.928 127.673 280.051 127.732 280.211 127.787C280.37 127.842 280.574 127.898 280.821 127.953C281.254 128.051 281.611 128.168 281.89 128.305C282.17 128.441 282.379 128.609 282.515 128.808C282.652 129.006 282.721 129.247 282.721 129.53C282.721 129.761 282.672 129.973 282.574 130.165C282.48 130.357 282.341 130.523 282.159 130.663C281.98 130.8 281.765 130.907 281.514 130.985C281.267 131.06 280.989 131.098 280.68 131.098C280.214 131.098 279.82 131.015 279.498 130.849C279.176 130.683 278.931 130.468 278.765 130.204C278.599 129.94 278.516 129.662 278.516 129.369H279.425C279.438 129.617 279.509 129.813 279.639 129.96C279.77 130.103 279.929 130.206 280.118 130.268C280.307 130.326 280.494 130.355 280.68 130.355C280.927 130.355 281.134 130.323 281.3 130.258C281.469 130.193 281.597 130.103 281.685 129.989C281.773 129.875 281.817 129.745 281.817 129.599Z" fill="#868686"/>
<path fill-rule="evenodd" clip-rule="evenodd" d="M206.999 129.515C206.988 130.889 205.874 132 204.5 132C203.126 132 202.012 130.889 202.001 129.515H202V125.132V124.505V123.879C202 122.841 202.839 122 203.875 122C204.91 122 205.75 122.841 205.75 123.879V124.505V125.132V127.328V128.117V129.515H205.748C205.737 130.198 205.184 130.748 204.5 130.748C203.816 130.748 203.263 130.198 203.252 129.515H203.25V128.889V128.117V127.328V126.384V125.648V124.938V124.505H203.875V125.112V125.757V127.072V127.749V128.417V128.889V129.515C203.875 129.861 204.155 130.141 204.5 130.141C204.845 130.141 205.125 129.861 205.125 129.515V128.417V127.749V127.072V126.384V125.277V125.132V124.505V123.879H205.124C205.124 123.872 205.125 123.866 205.125 123.859C205.125 123.167 204.565 122.607 203.875 122.607C203.185 122.607 202.625 123.167 202.625 123.859C202.625 123.866 202.626 123.872 202.626 123.879H202.625V124.505V125.132V125.277V126.384V127.842V129.515C202.625 130.553 203.464 131.394 204.5 131.394C205.535 131.394 206.375 130.553 206.375 129.515V127.842V123.879V123.253H207V123.879V129.515H206.999Z" fill="#4DA1FF"/>
</g>
<defs>
<filter id="filter0_d_2_1020" x="27.5" y="20.5" width="272" height="139" filterUnits="userSpaceOnUse" color-interpolation-filters="sRGB">
<feFlood flood-opacity="0" result="BackgroundImageFix"/>
<feColorMatrix in="SourceAlpha" type="matrix" values="0 0 0 0 0 0 0 0 0 0 0 0 0 0 0 0 0 0 127 0" result="hardAlpha"/>
<feOffset dy="4"/>
<feGaussianBlur stdDeviation="2"/>
<feComposite in2="hardAlpha" operator="out"/>
<feColorMatrix type="matrix" values="0 0 0 0 0 0 0 0 0 0 0 0 0 0 0 0 0 0 0.25 0"/>
<feBlend mode="normal" in2="BackgroundImageFix" result="effect1_dropShadow_2_1020"/>
<feBlend mode="normal" in="SourceGraphic" in2="effect1_dropShadow_2_1020" result="shape"/>
</filter>
<filter id="filter1_d_2_1020" x="0.5" y="0.5" width="334" height="201" filterUnits="userSpaceOnUse" color-interpolation-filters="sRGB">
<feFlood flood-opacity="0" result="BackgroundImageFix"/>
<feColorMatrix in="SourceAlpha" type="matrix" values="0 0 0 0 0 0 0 0 0 0 0 0 0 0 0 0 0 0 127 0" result="hardAlpha"/>
<feOffset dx="4" dy="15"/>
<feGaussianBlur stdDeviation="17.5"/>
<feColorMatrix type="matrix" values="0 0 0 0 0 0 0 0 0 0 0 0 0 0 0 0 0 0 0.11 0"/>
<feBlend mode="normal" in2="BackgroundImageFix" result="effect1_dropShadow_2_1020"/>
<feBlend mode="normal" in="SourceGraphic" in2="effect1_dropShadow_2_1020" result="shape"/>
</filter>
</defs>
</svg>
