<svg width="128" height="56" viewBox="0 0 128 56" fill="none" xmlns="http://www.w3.org/2000/svg">
<g opacity="0.52">
<g clip-path="url(#clip0_1202_433)">
<rect x="1" y="1" width="126" height="54" rx="3" stroke="white" stroke-width="2"/>
<path d="M28.9068 34.16C27.6374 34.16 26.5708 33.9253 25.7068 33.456C24.8428 32.9867 24.1921 32.32 23.7548 31.456C23.3174 30.592 23.0988 29.568 23.0988 28.384C23.0988 27.1893 23.3334 26.16 23.8028 25.296C24.2721 24.4213 24.9441 23.7493 25.8188 23.28C26.7041 22.8 27.7654 22.56 29.0028 22.56C29.8241 22.56 30.5441 22.672 31.1628 22.896C31.7814 23.1093 32.3254 23.424 32.7948 23.84L32.1068 25.44C31.7654 25.1733 31.4401 24.96 31.1308 24.8C30.8214 24.64 30.5014 24.528 30.1708 24.464C29.8401 24.3893 29.4561 24.352 29.0188 24.352C27.7814 24.352 26.8428 24.704 26.2028 25.408C25.5734 26.1013 25.2588 27.0987 25.2588 28.4C25.2588 29.7013 25.5574 30.6933 26.1548 31.376C26.7628 32.0587 27.7121 32.4 29.0028 32.4C29.4401 32.4 29.8774 32.3573 30.3148 32.272C30.7628 32.1867 31.2001 32.064 31.6267 31.904L31.2428 32.768V29.392H28.6028V27.888H32.9548V33.312C32.4321 33.5787 31.8081 33.7867 31.0828 33.936C30.3574 34.0853 29.6321 34.16 28.9068 34.16ZM39.0545 34.16C37.6998 34.16 36.6385 33.7867 35.8705 33.04C35.1025 32.2933 34.7185 31.2693 34.7185 29.968C34.7185 29.1253 34.8838 28.3893 35.2145 27.76C35.5452 27.1307 36.0038 26.64 36.5905 26.288C37.1878 25.936 37.8812 25.76 38.6705 25.76C39.4492 25.76 40.0998 25.9253 40.6225 26.256C41.1452 26.5867 41.5398 27.0507 41.8065 27.648C42.0838 28.2453 42.2225 28.944 42.2225 29.744V30.272H36.3345V29.216H40.7985L40.5265 29.44C40.5265 28.6933 40.3665 28.1227 40.0465 27.728C39.7372 27.3333 39.2838 27.136 38.6865 27.136C38.0252 27.136 37.5132 27.3707 37.1505 27.84C36.7985 28.3093 36.6225 28.9653 36.6225 29.808V30.016C36.6225 30.8907 36.8358 31.5467 37.2625 31.984C37.6998 32.4107 38.3132 32.624 39.1025 32.624C39.5612 32.624 39.9878 32.5653 40.3825 32.448C40.7878 32.32 41.1718 32.1173 41.5345 31.84L42.1265 33.184C41.7425 33.4933 41.2838 33.7333 40.7505 33.904C40.2172 34.0747 39.6518 34.16 39.0545 34.16ZM47.3409 34.16C46.3809 34.16 45.6555 33.9093 45.1649 33.408C44.6742 32.9067 44.4289 32.1547 44.4289 31.152V27.424H42.8769V25.92H44.4289V23.856L46.4289 23.344V25.92H48.5889V27.424H46.4289V31.024C46.4289 31.5787 46.5355 31.968 46.7489 32.192C46.9622 32.416 47.2555 32.528 47.6289 32.528C47.8315 32.528 48.0022 32.512 48.1409 32.48C48.2902 32.448 48.4342 32.4053 48.5729 32.352V33.936C48.3915 34.0107 48.1889 34.064 47.9649 34.096C47.7515 34.1387 47.5435 34.16 47.3409 34.16ZM53.25 34L58.354 22.72H60.082L65.25 34H63.154L61.778 30.832L62.61 31.392H55.842L56.706 30.832L55.33 34H53.25ZM59.202 24.928L56.946 30.272L56.53 29.776H61.906L61.57 30.272L59.266 24.928H59.202ZM69.9719 34.16C69.1399 34.16 68.4092 33.9893 67.7799 33.648C67.1612 33.3067 66.6812 32.8213 66.3399 32.192C65.9985 31.552 65.8279 30.7947 65.8279 29.92C65.8279 29.0453 65.9985 28.2987 66.3399 27.68C66.6919 27.0613 67.1772 26.5867 67.7959 26.256C68.4145 25.9253 69.1399 25.76 69.9719 25.76C70.5052 25.76 71.0225 25.8453 71.5239 26.016C72.0359 26.176 72.4519 26.4107 72.7719 26.72L72.1639 28.112C71.8759 27.8453 71.5505 27.648 71.1879 27.52C70.8359 27.3813 70.4892 27.312 70.1479 27.312C69.4332 27.312 68.8732 27.536 68.4679 27.984C68.0732 28.432 67.8759 29.0827 67.8759 29.936C67.8759 30.7893 68.0732 31.4453 68.4679 31.904C68.8732 32.3627 69.4332 32.592 70.1479 32.592C70.4785 32.592 70.8199 32.528 71.1719 32.4C71.5345 32.272 71.8652 32.0747 72.1639 31.808L72.7719 33.184C72.4412 33.4933 72.0199 33.7333 71.5079 33.904C71.0065 34.0747 70.4945 34.16 69.9719 34.16ZM77.8781 34.16C77.0461 34.16 76.3155 33.9893 75.6861 33.648C75.0675 33.3067 74.5875 32.8213 74.2461 32.192C73.9048 31.552 73.7341 30.7947 73.7341 29.92C73.7341 29.0453 73.9048 28.2987 74.2461 27.68C74.5981 27.0613 75.0835 26.5867 75.7021 26.256C76.3208 25.9253 77.0461 25.76 77.8781 25.76C78.4115 25.76 78.9288 25.8453 79.4301 26.016C79.9421 26.176 80.3581 26.4107 80.6781 26.72L80.0701 28.112C79.7821 27.8453 79.4568 27.648 79.0941 27.52C78.7421 27.3813 78.3955 27.312 78.0541 27.312C77.3395 27.312 76.7795 27.536 76.3741 27.984C75.9795 28.432 75.7821 29.0827 75.7821 29.936C75.7821 30.7893 75.9795 31.4453 76.3741 31.904C76.7795 32.3627 77.3395 32.592 78.0541 32.592C78.3848 32.592 78.7261 32.528 79.0781 32.4C79.4408 32.272 79.7715 32.0747 80.0701 31.808L80.6781 33.184C80.3475 33.4933 79.9261 33.7333 79.4141 33.904C78.9128 34.0747 78.4008 34.16 77.8781 34.16ZM85.9764 34.16C84.6217 34.16 83.5604 33.7867 82.7924 33.04C82.0244 32.2933 81.6404 31.2693 81.6404 29.968C81.6404 29.1253 81.8057 28.3893 82.1364 27.76C82.467 27.1307 82.9257 26.64 83.5124 26.288C84.1097 25.936 84.803 25.76 85.5924 25.76C86.371 25.76 87.0217 25.9253 87.5444 26.256C88.067 26.5867 88.4617 27.0507 88.7284 27.648C89.0057 28.2453 89.1444 28.944 89.1444 29.744V30.272H83.2564V29.216H87.7204L87.4484 29.44C87.4484 28.6933 87.2884 28.1227 86.9684 27.728C86.659 27.3333 86.2057 27.136 85.6084 27.136C84.947 27.136 84.435 27.3707 84.0724 27.84C83.7204 28.3093 83.5444 28.9653 83.5444 29.808V30.016C83.5444 30.8907 83.7577 31.5467 84.1844 31.984C84.6217 32.4107 85.235 32.624 86.0244 32.624C86.483 32.624 86.9097 32.5653 87.3044 32.448C87.7097 32.32 88.0937 32.1173 88.4564 31.84L89.0484 33.184C88.6644 33.4933 88.2057 33.7333 87.6724 33.904C87.139 34.0747 86.5737 34.16 85.9764 34.16ZM93.718 34.16C93.0247 34.16 92.3847 34.08 91.798 33.92C91.222 33.7493 90.7367 33.5147 90.342 33.216L90.902 31.872C91.3073 32.1493 91.7553 32.3627 92.246 32.512C92.7367 32.6613 93.2327 32.736 93.734 32.736C94.2673 32.736 94.662 32.6453 94.918 32.464C95.1847 32.2827 95.318 32.0373 95.318 31.728C95.318 31.4827 95.2327 31.2907 95.062 31.152C94.902 31.0027 94.6407 30.8907 94.278 30.816L92.678 30.512C91.9953 30.3627 91.4727 30.1067 91.11 29.744C90.758 29.3813 90.582 28.9067 90.582 28.32C90.582 27.8187 90.7153 27.376 90.982 26.992C91.2593 26.608 91.6487 26.3093 92.15 26.096C92.662 25.872 93.2593 25.76 93.942 25.76C94.5393 25.76 95.0993 25.84 95.622 26C96.1553 26.16 96.6033 26.4 96.966 26.72L96.39 28.016C96.0593 27.7493 95.6807 27.5413 95.254 27.392C94.8273 27.2427 94.4113 27.168 94.006 27.168C93.4513 27.168 93.046 27.2693 92.79 27.472C92.534 27.664 92.406 27.9147 92.406 28.224C92.406 28.4587 92.4807 28.656 92.63 28.816C92.79 28.9653 93.0353 29.0773 93.366 29.152L94.966 29.456C95.6807 29.5947 96.2193 29.84 96.582 30.192C96.9553 30.5333 97.142 31.0027 97.142 31.6C97.142 32.1333 96.998 32.592 96.71 32.976C96.422 33.36 96.022 33.6533 95.51 33.856C94.998 34.0587 94.4007 34.16 93.718 34.16ZM101.734 34.16C101.04 34.16 100.4 34.08 99.8136 33.92C99.2376 33.7493 98.7523 33.5147 98.3576 33.216L98.9176 31.872C99.323 32.1493 99.771 32.3627 100.262 32.512C100.752 32.6613 101.248 32.736 101.75 32.736C102.283 32.736 102.678 32.6453 102.934 32.464C103.2 32.2827 103.334 32.0373 103.334 31.728C103.334 31.4827 103.248 31.2907 103.078 31.152C102.918 31.0027 102.656 30.8907 102.294 30.816L100.694 30.512C100.011 30.3627 99.4883 30.1067 99.1256 29.744C98.7736 29.3813 98.5976 28.9067 98.5976 28.32C98.5976 27.8187 98.731 27.376 98.9976 26.992C99.275 26.608 99.6643 26.3093 100.166 26.096C100.678 25.872 101.275 25.76 101.958 25.76C102.555 25.76 103.115 25.84 103.638 26C104.171 26.16 104.619 26.4 104.982 26.72L104.406 28.016C104.075 27.7493 103.696 27.5413 103.27 27.392C102.843 27.2427 102.427 27.168 102.022 27.168C101.467 27.168 101.062 27.2693 100.806 27.472C100.55 27.664 100.422 27.9147 100.422 28.224C100.422 28.4587 100.496 28.656 100.646 28.816C100.806 28.9653 101.051 29.0773 101.382 29.152L102.982 29.456C103.696 29.5947 104.235 29.84 104.598 30.192C104.971 30.5333 105.158 31.0027 105.158 31.6C105.158 32.1333 105.014 32.592 104.726 32.976C104.438 33.36 104.038 33.6533 103.526 33.856C103.014 34.0587 102.416 34.16 101.734 34.16Z" fill="white"/>
</g>
</g>
<defs>
<clipPath id="clip0_1202_433">
<rect width="128" height="56" fill="white"/>
</clipPath>
</defs>
</svg>
