<svg width="307" height="107" viewBox="0 0 307 107" fill="none" xmlns="http://www.w3.org/2000/svg">
<path d="M13.696 36.528C10.976 36.528 8.432 36.192 6.064 35.52C3.696 34.848 1.68 33.92 0.0160002 32.736L2.224 26.88C3.312 27.616 4.464 28.24 5.68 28.752C6.896 29.264 8.176 29.664 9.52 29.952C10.864 30.208 12.272 30.336 13.744 30.336C16.048 30.336 17.68 29.984 18.64 29.28C19.632 28.576 20.128 27.68 20.128 26.592C20.128 25.6 19.792 24.848 19.12 24.336C18.48 23.792 17.296 23.328 15.568 22.944L9.904 21.792C6.8 21.152 4.48 20.064 2.944 18.528C1.408 16.992 0.64 14.944 0.64 12.384C0.64 10.208 1.216 8.32 2.368 6.72C3.52 5.12 5.136 3.872 7.216 2.976C9.328 2.08 11.792 1.632 14.608 1.632C17.008 1.632 19.248 1.968 21.328 2.64C23.408 3.312 25.12 4.272 26.464 5.52L24.256 10.992C22.944 9.936 21.472 9.152 19.84 8.64C18.24 8.096 16.448 7.824 14.464 7.824C12.384 7.824 10.784 8.192 9.664 8.928C8.576 9.664 8.032 10.672 8.032 11.952C8.032 12.912 8.368 13.696 9.04 14.304C9.712 14.88 10.896 15.344 12.592 15.696L18.16 16.8C21.328 17.44 23.68 18.512 25.216 20.016C26.752 21.52 27.52 23.52 27.52 26.016C27.52 28.128 26.944 29.968 25.792 31.536C24.672 33.104 23.072 34.336 20.992 35.232C18.944 36.096 16.512 36.528 13.696 36.528ZM32.5698 36V11.664H39.8178V36H32.5698ZM32.2818 7.68V0.912H40.0578V7.68H32.2818ZM45.7416 36V18C45.7416 16.976 45.7096 15.936 45.6456 14.88C45.5816 13.792 45.4856 12.72 45.3576 11.664H52.3176L52.8456 16.176H52.2696C52.9736 14.64 54.0136 13.424 55.3896 12.528C56.7656 11.632 58.3976 11.184 60.2856 11.184C62.1416 11.184 63.6936 11.632 64.9416 12.528C66.2216 13.392 67.1336 14.752 67.6776 16.608H66.9096C67.6136 14.944 68.7336 13.632 70.2696 12.672C71.8056 11.68 73.5496 11.184 75.5016 11.184C78.2536 11.184 80.3016 12 81.6456 13.632C82.9896 15.264 83.6616 17.824 83.6616 21.312V36H76.4136V21.552C76.4136 19.856 76.1416 18.64 75.5976 17.904C75.0536 17.168 74.1736 16.8 72.9576 16.8C71.5176 16.8 70.3816 17.312 69.5496 18.336C68.7176 19.36 68.3016 20.768 68.3016 22.56V36H61.0536V21.552C61.0536 19.856 60.7816 18.64 60.2376 17.904C59.6936 17.168 58.8136 16.8 57.5976 16.8C56.1576 16.8 55.0216 17.312 54.1896 18.336C53.3896 19.36 52.9896 20.768 52.9896 22.56V36H45.7416ZM89.476 46.368V18C89.476 16.976 89.444 15.936 89.38 14.88C89.316 13.792 89.22 12.72 89.092 11.664H96.052L96.628 16.416H96.1C96.58 14.816 97.588 13.552 99.124 12.624C100.66 11.664 102.42 11.184 104.404 11.184C106.516 11.184 108.372 11.696 109.972 12.72C111.572 13.712 112.82 15.152 113.716 17.04C114.644 18.928 115.108 21.184 115.108 23.808C115.108 26.464 114.644 28.736 113.716 30.624C112.82 32.512 111.572 33.968 109.972 34.992C108.372 36.016 106.516 36.528 104.404 36.528C102.452 36.528 100.708 36.064 99.172 35.136C97.668 34.208 96.66 32.976 96.148 31.44H96.724V46.368H89.476ZM102.196 31.056C103.892 31.056 105.252 30.464 106.276 29.28C107.3 28.096 107.812 26.272 107.812 23.808C107.812 21.344 107.3 19.536 106.276 18.384C105.252 17.232 103.892 16.656 102.196 16.656C100.532 16.656 99.172 17.232 98.116 18.384C97.092 19.536 96.58 21.344 96.58 23.808C96.58 26.272 97.092 28.096 98.116 29.28C99.172 30.464 100.532 31.056 102.196 31.056ZM119.804 36V0.671997H127.052V36H119.804ZM145.216 36.528C140.992 36.528 137.696 35.392 135.328 33.12C132.96 30.848 131.776 27.76 131.776 23.856C131.776 21.328 132.272 19.12 133.264 17.232C134.288 15.344 135.696 13.872 137.488 12.816C139.312 11.728 141.44 11.184 143.872 11.184C146.272 11.184 148.272 11.696 149.872 12.72C151.504 13.744 152.72 15.184 153.52 17.04C154.352 18.864 154.768 20.992 154.768 23.424V25.104H137.728V21.504H149.488L148.672 22.176C148.672 20.16 148.256 18.64 147.424 17.616C146.624 16.56 145.456 16.032 143.92 16.032C142.224 16.032 140.912 16.656 139.984 17.904C139.088 19.152 138.64 20.944 138.64 23.28V24.048C138.64 26.416 139.216 28.176 140.368 29.328C141.552 30.48 143.248 31.056 145.456 31.056C146.768 31.056 148 30.896 149.152 30.576C150.336 30.224 151.456 29.68 152.512 28.944L154.528 33.744C153.312 34.64 151.904 35.328 150.304 35.808C148.736 36.288 147.04 36.528 145.216 36.528ZM184.29 36.528C181.122 36.528 178.738 35.744 177.138 34.176C175.538 32.576 174.738 30.192 174.738 27.024V17.088H170.13V11.664H174.738V5.712L181.986 3.936V11.664H188.226V17.088H181.986V26.64C181.986 28.176 182.306 29.232 182.946 29.808C183.586 30.384 184.402 30.672 185.394 30.672C186.002 30.672 186.498 30.64 186.882 30.576C187.298 30.48 187.73 30.352 188.178 30.192V35.808C187.57 36.064 186.93 36.24 186.258 36.336C185.586 36.464 184.93 36.528 184.29 36.528ZM201.401 36.528C199.289 36.528 197.433 36.016 195.833 34.992C194.233 33.968 192.985 32.512 192.089 30.624C191.193 28.736 190.745 26.464 190.745 23.808C190.745 21.184 191.193 18.928 192.089 17.04C192.985 15.152 194.233 13.712 195.833 12.72C197.433 11.696 199.289 11.184 201.401 11.184C203.353 11.184 205.097 11.664 206.633 12.624C208.201 13.552 209.225 14.816 209.705 16.416H209.177L209.753 11.664H216.713C216.617 12.72 216.521 13.792 216.425 14.88C216.361 15.936 216.329 16.976 216.329 18V36H209.129L209.081 31.44H209.657C209.145 32.976 208.121 34.208 206.585 35.136C205.049 36.064 203.321 36.528 201.401 36.528ZM203.609 31.056C205.273 31.056 206.617 30.464 207.641 29.28C208.665 28.096 209.177 26.272 209.177 23.808C209.177 21.344 208.665 19.536 207.641 18.384C206.617 17.232 205.273 16.656 203.609 16.656C201.945 16.656 200.601 17.232 199.577 18.384C198.553 19.536 198.041 21.344 198.041 23.808C198.041 26.272 198.537 28.096 199.529 29.28C200.553 30.464 201.913 31.056 203.609 31.056ZM231.249 36.528C229.073 36.528 227.089 36.288 225.297 35.808C223.505 35.328 221.985 34.656 220.737 33.792L222.609 28.992C223.857 29.76 225.233 30.368 226.737 30.816C228.273 31.264 229.793 31.488 231.297 31.488C232.705 31.488 233.745 31.264 234.417 30.816C235.089 30.368 235.425 29.76 235.425 28.992C235.425 28.352 235.201 27.856 234.753 27.504C234.337 27.152 233.681 26.896 232.785 26.736L227.841 25.824C225.761 25.408 224.177 24.64 223.089 23.52C222.001 22.4 221.457 20.944 221.457 19.152C221.457 17.584 221.873 16.208 222.705 15.024C223.569 13.808 224.801 12.864 226.401 12.192C228.001 11.52 229.873 11.184 232.017 11.184C233.841 11.184 235.569 11.408 237.201 11.856C238.833 12.304 240.225 12.992 241.377 13.92L239.409 18.576C238.417 17.84 237.265 17.248 235.953 16.8C234.673 16.352 233.441 16.128 232.257 16.128C230.721 16.128 229.617 16.384 228.945 16.896C228.273 17.376 227.937 18 227.937 18.768C227.937 19.344 228.129 19.824 228.513 20.208C228.929 20.592 229.553 20.88 230.385 21.072L235.377 21.984C237.521 22.368 239.153 23.088 240.273 24.144C241.393 25.2 241.953 26.656 241.953 28.512C241.953 30.208 241.505 31.648 240.609 32.832C239.713 34.016 238.449 34.928 236.817 35.568C235.217 36.208 233.361 36.528 231.249 36.528ZM246.46 36V0.671997H253.708V21.792H253.804L262.828 11.664H271.468L259.804 24.624V21.984L272.092 36H263.212L253.804 25.44H253.708V36H246.46ZM0.976 96V78C0.976 76.976 0.944 75.936 0.88 74.88C0.816 73.792 0.72 72.72 0.592 71.664H7.552L8.08 76.176H7.504C8.208 74.64 9.248 73.424 10.624 72.528C12 71.632 13.632 71.184 15.52 71.184C17.376 71.184 18.928 71.632 20.176 72.528C21.456 73.392 22.368 74.752 22.912 76.608H22.144C22.848 74.944 23.968 73.632 25.504 72.672C27.04 71.68 28.784 71.184 30.736 71.184C33.488 71.184 35.536 72 36.88 73.632C38.224 75.264 38.896 77.824 38.896 81.312V96H31.648V81.552C31.648 79.856 31.376 78.64 30.832 77.904C30.288 77.168 29.408 76.8 28.192 76.8C26.752 76.8 25.616 77.312 24.784 78.336C23.952 79.36 23.536 80.768 23.536 82.56V96H16.288V81.552C16.288 79.856 16.016 78.64 15.472 77.904C14.928 77.168 14.048 76.8 12.832 76.8C11.392 76.8 10.256 77.312 9.424 78.336C8.624 79.36 8.224 80.768 8.224 82.56V96H0.976ZM54.1664 96.528C52.0544 96.528 50.1984 96.016 48.5984 94.992C46.9984 93.968 45.7504 92.512 44.8544 90.624C43.9584 88.736 43.5104 86.464 43.5104 83.808C43.5104 81.184 43.9584 78.928 44.8544 77.04C45.7504 75.152 46.9984 73.712 48.5984 72.72C50.1984 71.696 52.0544 71.184 54.1664 71.184C56.1184 71.184 57.8624 71.664 59.3984 72.624C60.9664 73.552 61.9904 74.816 62.4704 76.416H61.9424L62.5184 71.664H69.4784C69.3824 72.72 69.2864 73.792 69.1904 74.88C69.1264 75.936 69.0944 76.976 69.0944 78V96H61.8944L61.8464 91.44H62.4224C61.9104 92.976 60.8864 94.208 59.3504 95.136C57.8144 96.064 56.0864 96.528 54.1664 96.528ZM56.3744 91.056C58.0384 91.056 59.3824 90.464 60.4064 89.28C61.4304 88.096 61.9424 86.272 61.9424 83.808C61.9424 81.344 61.4304 79.536 60.4064 78.384C59.3824 77.232 58.0384 76.656 56.3744 76.656C54.7104 76.656 53.3664 77.232 52.3424 78.384C51.3184 79.536 50.8064 81.344 50.8064 83.808C50.8064 86.272 51.3024 88.096 52.2944 89.28C53.3184 90.464 54.6784 91.056 56.3744 91.056ZM75.0385 96V78C75.0385 76.976 75.0065 75.936 74.9425 74.88C74.8785 73.792 74.7825 72.72 74.6545 71.664H81.6145L82.1425 76.176H81.5665C82.3665 74.576 83.5025 73.344 84.9745 72.48C86.4465 71.616 88.1585 71.184 90.1105 71.184C92.9585 71.184 95.0865 72.016 96.4945 73.68C97.9345 75.312 98.6545 77.856 98.6545 81.312V96H91.4065V81.648C91.4065 79.888 91.0865 78.64 90.4465 77.904C89.8065 77.168 88.8465 76.8 87.5665 76.8C85.9665 76.8 84.6865 77.312 83.7265 78.336C82.7665 79.328 82.2865 80.672 82.2865 82.368V96H75.0385ZM113.932 96.528C111.82 96.528 109.964 96.016 108.364 94.992C106.764 93.968 105.516 92.512 104.62 90.624C103.724 88.736 103.276 86.464 103.276 83.808C103.276 81.184 103.724 78.928 104.62 77.04C105.516 75.152 106.764 73.712 108.364 72.72C109.964 71.696 111.82 71.184 113.932 71.184C115.884 71.184 117.628 71.664 119.164 72.624C120.732 73.552 121.756 74.816 122.236 76.416H121.708L122.284 71.664H129.244C129.148 72.72 129.052 73.792 128.956 74.88C128.892 75.936 128.86 76.976 128.86 78V96H121.66L121.612 91.44H122.188C121.676 92.976 120.652 94.208 119.116 95.136C117.58 96.064 115.852 96.528 113.932 96.528ZM116.14 91.056C117.804 91.056 119.148 90.464 120.172 89.28C121.196 88.096 121.708 86.272 121.708 83.808C121.708 81.344 121.196 79.536 120.172 78.384C119.148 77.232 117.804 76.656 116.14 76.656C114.476 76.656 113.132 77.232 112.108 78.384C111.084 79.536 110.572 81.344 110.572 83.808C110.572 86.272 111.068 88.096 112.06 89.28C113.084 90.464 114.444 91.056 116.14 91.056ZM146.372 106.752C144.036 106.752 141.956 106.512 140.132 106.032C138.308 105.584 136.676 104.896 135.236 103.968L136.628 98.784C137.524 99.36 138.468 99.824 139.46 100.176C140.484 100.56 141.524 100.832 142.58 100.992C143.668 101.184 144.74 101.28 145.796 101.28C147.94 101.28 149.54 100.768 150.596 99.744C151.652 98.72 152.18 97.264 152.18 95.376V90.336H152.66C152.148 91.872 151.124 93.104 149.588 94.032C148.052 94.96 146.324 95.424 144.404 95.424C142.228 95.424 140.324 94.928 138.692 93.936C137.092 92.944 135.844 91.536 134.948 89.712C134.052 87.888 133.604 85.744 133.604 83.28C133.604 80.816 134.052 78.672 134.948 76.848C135.844 75.024 137.092 73.632 138.692 72.672C140.324 71.68 142.228 71.184 144.404 71.184C146.356 71.184 148.068 71.648 149.54 72.576C151.044 73.472 152.052 74.672 152.564 76.176L152.18 75.984L152.66 71.664H159.668C159.54 72.72 159.444 73.792 159.38 74.88C159.316 75.936 159.284 76.976 159.284 78V94.56C159.284 98.496 158.18 101.504 155.972 103.584C153.764 105.696 150.564 106.752 146.372 106.752ZM146.564 89.952C148.26 89.952 149.604 89.376 150.596 88.224C151.588 87.072 152.084 85.424 152.084 83.28C152.084 81.136 151.588 79.504 150.596 78.384C149.604 77.232 148.26 76.656 146.564 76.656C144.804 76.656 143.412 77.232 142.388 78.384C141.396 79.504 140.9 81.136 140.9 83.28C140.9 85.424 141.396 87.072 142.388 88.224C143.412 89.376 144.804 89.952 146.564 89.952ZM177.419 96.528C173.195 96.528 169.899 95.392 167.531 93.12C165.163 90.848 163.979 87.76 163.979 83.856C163.979 81.328 164.475 79.12 165.467 77.232C166.491 75.344 167.899 73.872 169.691 72.816C171.515 71.728 173.643 71.184 176.075 71.184C178.475 71.184 180.475 71.696 182.075 72.72C183.707 73.744 184.923 75.184 185.723 77.04C186.555 78.864 186.971 80.992 186.971 83.424V85.104H169.931V81.504H181.691L180.875 82.176C180.875 80.16 180.459 78.64 179.627 77.616C178.827 76.56 177.659 76.032 176.123 76.032C174.427 76.032 173.115 76.656 172.187 77.904C171.291 79.152 170.843 80.944 170.843 83.28V84.048C170.843 86.416 171.419 88.176 172.571 89.328C173.755 90.48 175.451 91.056 177.659 91.056C178.971 91.056 180.203 90.896 181.355 90.576C182.539 90.224 183.659 89.68 184.715 88.944L186.731 93.744C185.515 94.64 184.107 95.328 182.507 95.808C180.939 96.288 179.243 96.528 177.419 96.528ZM191.57 96V78C191.57 76.976 191.538 75.936 191.474 74.88C191.41 73.792 191.314 72.72 191.186 71.664H198.146L198.674 76.176H198.098C198.802 74.64 199.842 73.424 201.218 72.528C202.594 71.632 204.226 71.184 206.114 71.184C207.97 71.184 209.522 71.632 210.77 72.528C212.05 73.392 212.962 74.752 213.506 76.608H212.738C213.442 74.944 214.562 73.632 216.098 72.672C217.634 71.68 219.378 71.184 221.33 71.184C224.082 71.184 226.13 72 227.474 73.632C228.818 75.264 229.49 77.824 229.49 81.312V96H222.242V81.552C222.242 79.856 221.97 78.64 221.426 77.904C220.882 77.168 220.002 76.8 218.786 76.8C217.346 76.8 216.21 77.312 215.378 78.336C214.546 79.36 214.13 80.768 214.13 82.56V96H206.882V81.552C206.882 79.856 206.61 78.64 206.066 77.904C205.522 77.168 204.642 76.8 203.426 76.8C201.986 76.8 200.85 77.312 200.018 78.336C199.218 79.36 198.818 80.768 198.818 82.56V96H191.57ZM247.544 96.528C243.32 96.528 240.024 95.392 237.656 93.12C235.288 90.848 234.104 87.76 234.104 83.856C234.104 81.328 234.6 79.12 235.592 77.232C236.616 75.344 238.024 73.872 239.816 72.816C241.64 71.728 243.768 71.184 246.2 71.184C248.6 71.184 250.6 71.696 252.2 72.72C253.832 73.744 255.048 75.184 255.848 77.04C256.68 78.864 257.096 80.992 257.096 83.424V85.104H240.056V81.504H251.816L251 82.176C251 80.16 250.584 78.64 249.752 77.616C248.952 76.56 247.784 76.032 246.248 76.032C244.552 76.032 243.24 76.656 242.312 77.904C241.416 79.152 240.968 80.944 240.968 83.28V84.048C240.968 86.416 241.544 88.176 242.696 89.328C243.88 90.48 245.576 91.056 247.784 91.056C249.096 91.056 250.328 90.896 251.48 90.576C252.664 90.224 253.784 89.68 254.84 88.944L256.856 93.744C255.64 94.64 254.232 95.328 252.632 95.808C251.064 96.288 249.368 96.528 247.544 96.528ZM261.695 96V78C261.695 76.976 261.663 75.936 261.599 74.88C261.535 73.792 261.439 72.72 261.311 71.664H268.271L268.799 76.176H268.223C269.023 74.576 270.159 73.344 271.631 72.48C273.103 71.616 274.815 71.184 276.767 71.184C279.615 71.184 281.743 72.016 283.151 73.68C284.591 75.312 285.311 77.856 285.311 81.312V96H278.063V81.648C278.063 79.888 277.743 78.64 277.103 77.904C276.463 77.168 275.503 76.8 274.223 76.8C272.623 76.8 271.343 77.312 270.383 78.336C269.423 79.328 268.943 80.672 268.943 82.368V96H261.695ZM302.508 96.528C299.34 96.528 296.956 95.744 295.356 94.176C293.756 92.576 292.956 90.192 292.956 87.024V77.088H288.348V71.664H292.956V65.712L300.204 63.936V71.664H306.444V77.088H300.204V86.64C300.204 88.176 300.524 89.232 301.164 89.808C301.804 90.384 302.62 90.672 303.612 90.672C304.22 90.672 304.716 90.64 305.1 90.576C305.516 90.48 305.948 90.352 306.396 90.192V95.808C305.788 96.064 305.148 96.24 304.476 96.336C303.804 96.464 303.148 96.528 302.508 96.528Z" fill="black"/>
</svg>
